<svg enable-background="new 0 0 3710 3710" viewBox="0 0 3710 3710" xmlns="http://www.w3.org/2000/svg" xmlns:xlink="http://www.w3.org/1999/xlink"><defs><path id="a" d="m1193.283 2568.647c-23.249 38.538-63.759 90.861-107.619 151.539l732.021 105.99c-81.882-222.916-197.317-457.023-24.915-844.096 80.906-181.647 295.936-501.005 207.428-713.979-100.834-242.638-300.325-137.865-350.942-325.716-79.113-293.608-329.039-497.857-597.533-351.939-264.993 144.014-256.097 670.206 93.071 1245.84 203.718 441.34 169.888 531.128 48.489 732.361z"/><linearGradient id="b" gradientUnits="userSpaceOnUse" x1="1727.4398" x2="263.8579" y1="1331.9315" y2="3126.8887"><stop offset="0" stop-color="#aa80f9"/><stop offset=".1989" stop-color="#9b7bf2"/><stop offset=".9964" stop-color="#6165d7"/></linearGradient><clipPath id="c"><use xlink:href="#a"/></clipPath><linearGradient id="d" gradientUnits="userSpaceOnUse" x1="717.7185" x2="1818.5848" y1="1447.9225" y2="3260.2322"><stop offset=".0036" stop-color="#e38ddd"/><stop offset="1" stop-color="#9571f6"/></linearGradient><clipPath id="e"><use xlink:href="#V"/></clipPath><linearGradient id="f"><stop offset="0" stop-color="#40447e"/><stop offset=".9964" stop-color="#3c3b6b"/></linearGradient><linearGradient id="g" gradientUnits="userSpaceOnUse" x1="1717.6107" x2="1535.385" xlink:href="#f" y1="2872.6655" y2="2949.2004"/><linearGradient id="h" gradientUnits="userSpaceOnUse" x1="1421.1185" x2="1232.1807" xlink:href="#f" y1="2062.5645" y2="2141.9182"/><linearGradient id="i" gradientUnits="userSpaceOnUse" x1="622.0494" x2="2343.8401" xlink:href="#f" y1="2108.3083" y2="2108.3083"/><linearGradient id="j"><stop offset="0" stop-color="#ffc444"/><stop offset=".9964" stop-color="#f36f56"/></linearGradient><linearGradient id="k" gradientUnits="userSpaceOnUse" x1="732.6468" x2="2480.4668" xlink:href="#j" y1="2663.3828" y2="1240.109"/><linearGradient id="l" gradientUnits="userSpaceOnUse" x1="622.0494" x2="3215.8567" xlink:href="#f" y1="2792.2109" y2="2792.2109"/><linearGradient id="m" gradientUnits="userSpaceOnUse" x1="876.4157" x2="2776.8821" xlink:href="#f" y1="2770.7632" y2="2770.7632"/><linearGradient id="n"><stop offset="0" stop-color="#aa80f9"/><stop offset=".9964" stop-color="#6165d7"/></linearGradient><linearGradient id="o" gradientUnits="userSpaceOnUse" x1="2645.2646" x2="2659.8589" xlink:href="#n" y1="30.4029" y2="3444.7981"/><linearGradient id="p"><stop offset="0" stop-color="#444b8c"/><stop offset=".9964" stop-color="#26264f"/></linearGradient><linearGradient id="q" gradientUnits="userSpaceOnUse" x1="2652.0591" x2="2654.0894" xlink:href="#p" y1="1430.0825" y2="1905.0665"/><linearGradient id="r" gradientUnits="userSpaceOnUse" x1="2699.9009" x2="2714.4573" xlink:href="#n" y1="35.8846" y2="3441.4165"/><linearGradient id="s" gradientUnits="userSpaceOnUse" x1="2048.8672" x2="2357.3845" xlink:href="#p" y1="1172.3335" y2="1172.3335"/><linearGradient id="t" gradientUnits="userSpaceOnUse" x1="2092.1223" x2="3177.3398" xlink:href="#n" y1="1216.8018" y2="1216.8018"/><linearGradient id="u" gradientTransform="matrix(-1 0 0 1 7010.1123 0)" gradientUnits="userSpaceOnUse" x1="4173.814" x2="4846.481" xlink:href="#p" y1="1261.0996" y2="1261.0996"/><linearGradient id="v" gradientUnits="userSpaceOnUse" x1="2823.1738" x2="2846.0391" xlink:href="#n" y1="-1788.8624" y2="3560.5469"/><linearGradient id="w" gradientUnits="userSpaceOnUse" x1="2949.0313" x2="3257.5488" xlink:href="#p" y1="1249.7432" y2="1249.7432"/><linearGradient id="x" gradientUnits="userSpaceOnUse" x1="1482.5024" x2="1438.2128" xlink:href="#n" y1="2045.0896" y2="2821.3215"/><linearGradient id="y" gradientTransform="matrix(-.9642 .2651 .2651 .9642 2192.8501 -308.9189)" gradientUnits="userSpaceOnUse" x1="1057.7446" x2="1168.4531" xlink:href="#p" y1="3270.7644" y2="3270.7644"/><linearGradient id="z" gradientTransform="matrix(-.9802 .1979 .1979 .9802 2204.0603 -227.1835)" gradientUnits="userSpaceOnUse" x1="892.4193" x2="939.1044" xlink:href="#j" y1="3257.2817" y2="3160.6543"/><linearGradient id="A" gradientTransform="matrix(-.9642 .2651 .2651 .9642 2192.8501 -308.9189)" gradientUnits="userSpaceOnUse" x1="1231.1818" x2="1341.89" xlink:href="#p" y1="3263.6279" y2="3263.6279"/><linearGradient id="B" gradientTransform="matrix(-.9802 .1979 .1979 .9802 2204.0603 -227.1835)" gradientUnits="userSpaceOnUse" x1="1065.9355" x2="1112.6204" xlink:href="#j" y1="3262.136" y2="3165.5093"/><linearGradient id="C" gradientUnits="userSpaceOnUse" x1="1288.2115" x2="1243.9219" xlink:href="#n" y1="2034.0038" y2="2810.2351"/><linearGradient id="D" gradientUnits="userSpaceOnUse" x1="1064.0646" x2="1331.2195" xlink:href="#n" y1="2649.2319" y2="2310.9514"/><linearGradient id="E" gradientUnits="userSpaceOnUse" x1="1028.5157" x2="984.226" xlink:href="#n" y1="2019.1865" y2="2795.4197"/><linearGradient id="F"><stop offset="0" stop-color="#ff9085"/><stop offset="1" stop-color="#fb6fbb"/></linearGradient><linearGradient id="G" gradientUnits="userSpaceOnUse" x1="1446.6803" x2="1818.6193" xlink:href="#F" y1="3055.6287" y2="2584.6672"/><linearGradient id="H" gradientUnits="userSpaceOnUse" x1="1668.1489" x2="1236.6294" xlink:href="#F" y1="2620.6431" y2="3098.6343"/><linearGradient id="I"><stop offset="0" stop-color="#311944"/><stop offset="1" stop-color="#893976"/></linearGradient><linearGradient id="J" gradientUnits="userSpaceOnUse" x1="1465.1204" x2="1404.5336" xlink:href="#I" y1="2745.1018" y2="2573.439"/><linearGradient id="K" gradientUnits="userSpaceOnUse" x1="1200.4437" x2="1222.6589" xlink:href="#I" y1="2496.3889" y2="2649.8755"/><linearGradient id="L" gradientUnits="userSpaceOnUse" x1="1193.7803" x2="1319.3347" xlink:href="#j" y1="2530.0154" y2="2530.0154"/><linearGradient id="M" gradientUnits="userSpaceOnUse" x1="1640.6261" x2="1522.504" xlink:href="#p" y1="2509.8318" y2="2342.0986"/><linearGradient id="N" gradientUnits="userSpaceOnUse" x1="1414.047" x2="1672.5514" xlink:href="#I" y1="2787.4272" y2="2262.3406"/><linearGradient id="O" gradientUnits="userSpaceOnUse" x1="1287.7681" x2="1855.668" xlink:href="#I" y1="2450.4094" y2="2450.4094"/><linearGradient id="P" gradientTransform="matrix(.917 .3988 -.3988 .917 399.6047 -184.8945)" gradientUnits="userSpaceOnUse" x1="1644.1843" x2="1656.6906" xlink:href="#j" y1="1836.4943" y2="1503.3719"/><linearGradient id="Q"><stop offset="0" stop-color="#311944"/><stop offset="1" stop-color="#6b3976"/></linearGradient><linearGradient id="R" gradientTransform="matrix(-.9687 -.2485 -.2485 .9687 2456.1904 427.3052)" gradientUnits="userSpaceOnUse" x1="848.1857" x2="763.3954" xlink:href="#Q" y1="1900.1848" y2="1684.8329"/><linearGradient id="S" gradientTransform="matrix(.982 .1887 -.1887 .982 983.7829 102.0635)" gradientUnits="userSpaceOnUse" x1="628.0769" x2="624.1773" xlink:href="#j" y1="1735.8794" y2="2050.0659"/><linearGradient id="T" gradientTransform="matrix(-.9687 -.2485 -.2485 .9687 2456.1904 427.3052)" gradientUnits="userSpaceOnUse" x1="822.2794" x2="737.4065" xlink:href="#Q" y1="1910.4933" y2="1694.9315"/><linearGradient id="U" gradientTransform="matrix(-.9687 -.2485 -.2485 .9687 2456.1904 427.3052)" gradientUnits="userSpaceOnUse" x1="739.2111" x2="743.625" y1="1780.6069" y2="1819.9573"><stop offset="0" stop-color="#ffc444"/><stop offset="1" stop-color="#f36f56"/></linearGradient><path id="V" d="m1198.119 1759.554c3.984 339.816 167.885 227.845 319.019 261.381 174.426 252.371 190.857 486.518-69.571 688.73l-290.182-43.426c-107.67-4.997-234.008-37.905-226.879-181.273 8.063-162.148 46.408-265.133-136.611-344.764-183.016-79.631-261.636-224.932-187.524-390.205 77.992-173.924-104.943-408.366 28.75-524.898 232.951-203.05 558.848 180.604 562.998 534.455z"/></defs><g fill="#97a6b7"><path d="m2767.283 1185.983-79.807.137c-5.497-52.717-18.172-103.321-37.03-150.862l67.477-39.132c18.441-10.695 24.747-34.815 14.117-53.931l-28.355-50.992c-10.695-19.233-34.445-26.296-53.08-15.72l-66.637 37.82c-31.014-43.461-68.029-82.646-109.955-116.35l38.327-65.839c10.998-18.891 4.474-43.752-14.605-55.59l-51.011-31.65c-19.285-11.965-44.027-6.309-55.229 12.693l-38.415 65.165c-49.359-22.991-102.697-39.577-158.955-48.473v-77.277c0-22.798-18.753-42.134-41.96-43.193l-62.108-2.834c-23.504-1.072-42.618 16.739-42.618 39.787v78.126c-57.992 4.832-113.897 17.868-166.451 38.04l-41.459-70.63c-12.183-20.756-39.243-28.803-60.479-17.912l-56.797 29.13c-21.478 11.016-28.853 36.938-16.43 57.834l42.956 72.26c-47.016 33.239-89.046 73.031-124.647 118.149l-77.699-43.96c-22.029-12.463-50.298-6.002-63.099 14.501l-34.158 54.708c-12.887 20.641-5.236 47.425 17.046 59.756l80.399 44.491c-22.293 51.341-37.352 106.375-43.903 163.919l-96.44.166c-25.955.045-47.066 19.718-47.066 43.94v64.418c0 24.222 21.111 43.596 47.066 43.273l99.002-1.232c8.358 56.197 24.867 109.696 48.326 159.365l-87.383 49.594c-22.282 12.646-29.933 39.539-17.046 59.997l34.158 54.225c12.802 20.322 41.071 26.383 63.099 13.607l88.383-51.256c35.314 41.768 76.385 78.467 121.961 109.012l-50.955 86.437c-12.422 21.072-5.048 46.89 16.43 57.601l56.797 28.326c21.236 10.591 48.296 2.16 60.479-18.768l50.535-86.809c49.901 17.6 102.711 28.77 157.375 32.626v96.774c0 23.048 19.114 40.589 42.618 39.183l62.108-3.714c23.206-1.388 41.96-20.99 41.96-43.787v-95.722c53.055-9.068 103.512-24.942 150.484-46.53l46.887 78.871c11.202 18.844 35.945 24.149 55.229 11.911l51.011-32.372c19.079-12.107 25.603-37.061 14.605-55.797l-45.515-77.542c40.741-32.242 77.012-69.541 107.867-110.795l75.913 42.01c18.635 10.312 42.385 2.913 53.08-16.471l28.355-51.394c10.63-19.267 4.324-43.297-14.117-53.731l-73.409-41.532c19.881-46.639 33.794-96.288 40.814-148.004l81.955-1.02c21.125-.263 38.2-18.11 38.2-39.863v-57.852c-.001-21.747-17.076-39.353-38.201-39.316zm-646.1 476.234c-236.148 8.763-433.768-174.512-433.768-409.641 0-235.128 197.62-420.929 433.768-415.185 228.123 5.549 407.441 188.951 407.441 409.808 0 220.859-179.318 406.553-407.441 415.018z"/><path d="m1856.944 614.339-56.841-1.96-19.6 50.961z"/><path d="m2420.569 637.859 65.543.654v48.347z"/><path d="m2670.355 871.076 65.334 2.64-16.334 36.587z"/><path d="m2772.93 1186.667 65.987 5.226-21.56 32.014z"/><path d="m2663.168 1639.433 64.028 9.146 7.84-52.267z"/><path d="m2418.165 1875.289 57.494 10.454 4.573-42.468z"/><path d="m2130.694 1977.21-51.614-9.146 44.428-65.988z"/><path d="m1851.064 1921.676-60.107-12.413 46.387-56.188z"/><path d="m1513.286 844.969 62.721 1.96-24.827 45.734z"/><path d="m1388.498 1336.935 57.494 8.494-4.574-47.041z"/><path d="m1511.979 1681.247 56.188 9.146 4.573-37.24z"/></g><path d="m2831.761 1191.165-80.468.138c-5.543-53.146-18.322-104.162-37.337-152.091l68.036-39.45c18.594-10.782 24.952-35.099 14.234-54.371l-28.59-51.407c-10.783-19.389-34.73-26.51-53.519-15.848l-67.19 38.128c-31.271-43.815-68.593-83.32-110.866-117.298l38.646-66.375c11.089-19.045 4.51-44.109-14.727-56.043l-51.434-31.907c-19.445-12.062-44.392-6.361-55.687 12.796l-38.733 65.696c-49.769-23.179-103.549-39.899-160.273-48.868v-77.907c0-22.983-18.909-42.477-42.308-43.545l-62.623-2.857c-23.698-1.081-42.971 16.875-42.971 40.111v78.763c-58.473 4.871-114.841 18.014-167.831 38.35l-41.802-71.206c-12.284-20.925-39.568-29.038-60.98-18.058l-57.268 29.367c-21.656 11.106-29.092 37.239-16.567 58.306l43.313 72.849c-47.406 33.51-89.785 73.626-125.68 119.112l-78.343-44.318c-22.211-12.565-50.715-6.051-63.622 14.62l-34.441 55.154c-12.994 20.809-5.28 47.812 17.187 60.243l81.066 44.854c-22.478 51.759-37.661 107.242-44.267 165.254l-97.24.167c-26.171.045-47.456 19.878-47.456 44.298v64.943c0 24.42 21.286 43.951 47.456 43.625l99.822-1.242c8.427 56.655 25.073 110.59 48.727 160.663l-88.108 49.999c-22.467 12.749-30.181 39.861-17.187 60.486l34.441 54.667c12.908 20.487 41.411 26.598 63.622 13.718l89.116-51.674c35.607 42.108 77.019 79.106 122.973 109.9l-51.378 87.142c-12.525 21.244-5.09 47.272 16.567 58.071l57.268 28.556c21.413 10.677 48.697 2.177 60.981-18.921l50.954-87.516c50.315 17.744 103.563 29.005 158.68 32.892v97.562c0 23.235 19.272 40.919 42.971 39.502l62.623-3.744c23.399-1.399 42.308-21.161 42.308-44.144v-96.502c53.495-9.142 104.37-25.145 151.731-46.909l47.275 79.514c11.295 18.998 36.242 24.346 55.687 12.008l51.434-32.636c19.237-12.206 25.815-37.363 14.726-56.251l-45.893-78.173c41.079-32.504 77.65-70.108 108.761-111.698l76.542 42.352c18.79 10.396 42.736 2.936 53.519-16.606l28.59-51.813c10.718-19.423 4.36-43.65-14.234-54.168l-74.018-41.871c20.045-47.019 34.074-97.072 41.153-149.209l82.634-1.028c21.301-.265 38.517-18.258 38.517-40.188v-58.323c-.002-21.929-17.218-39.678-38.519-39.641zm-651.455 480.114c-238.105 8.834-437.363-175.934-437.363-412.978 0-237.043 199.258-424.358 437.363-418.567 230.014 5.595 410.818 190.491 410.818 413.147 0 222.657-180.805 409.864-410.818 418.398z" fill="#d8dee8"/><path d="m3029.137 2289.158-42.934-7.984c2.366-28.906.659-57.4-4.683-84.871l40.24-14.232c10.997-3.89 16.824-16.225 13.037-27.579l-10.101-30.286c-3.81-11.423-15.869-17.62-26.959-13.813l-39.656 13.612c-12.292-26.504-28.241-51.315-47.386-73.674l27.26-31.538c7.822-9.049 6.823-23.078-2.242-31.37l-24.238-22.171c-9.163-8.382-23.04-7.838-30.984 1.25l-27.239 31.167c-24.224-17.348-51.234-31.653-80.591-42.118l7.802-41.559c2.302-12.26-5.831-24.553-18.205-27.465l-33.115-7.795c-12.532-2.95-24.61 4.699-26.937 17.094l-7.888 42.016c-31.676-3.257-63.057-1.89-93.357 3.652l-15.165-42.171c-4.456-12.392-18.197-19.452-30.717-15.739l-33.486 9.932c-12.663 3.756-19.246 16.952-14.675 29.444l15.806 43.198c-28.641 13.129-55.262 30.285-78.963 50.955l-37.348-31.486c-10.589-8.927-26.444-8.306-35.399 1.428l-23.893 25.973c-9.014 9.799-7.604 24.976 3.134 33.858l38.746 32.045c-17.173 25.36-30.828 53.437-40.161 83.722l-51.882-9.648c-13.963-2.596-27.303 5.852-29.748 18.879l-6.504 34.644c-2.446 13.027 6.952 25.577 20.943 28.024l53.367 9.333c-1.179 31.066 2.298 61.505 9.9 90.585l-52.002 17.849c-13.26 4.551-20.09 18.242-15.225 30.545l12.895 32.611c4.833 12.221 19.424 18.335 32.561 13.689l52.707-18.642c14.774 26.028 33.157 49.911 54.584 70.94l-36.131 41.341c-8.808 10.078-7.449 24.708 3.021 32.636l27.685 20.968c10.352 7.84 25.755 6.038 34.42-3.987l35.942-41.583c25.059 14.504 52.333 25.843 81.342 33.436l-9.771 52.044c-2.327 12.395 6.182 23.758 18.964 25.375l33.777 4.273c12.62 1.597 24.685-7.052 26.987-19.312l9.665-51.479c29.448.48 58.187-2.962 85.627-9.83l17.252 47.15c4.122 11.265 16.893 16.616 28.5 11.982l30.702-12.259c11.483-4.585 17.511-17.346 13.488-28.533l-16.649-46.297c25.166-13.226 48.438-29.623 69.196-48.694l36.584 30.257c8.98 7.427 22.5 5.846 30.209-3.499l20.438-24.777c7.662-9.288 6.697-22.848-2.167-30.321l-35.286-29.748c15.4-23.075 27.896-48.371 36.893-75.475l44.178 7.726c11.388 1.992 22.372-5.883 24.568-17.581l5.841-31.112c2.196-11.7-5.209-22.892-16.574-25.005zm-395.552 190.883c-127.884-19.13-215.659-137.647-191.919-264.098s148.778-206.421 275.197-179.489c122.123 26.017 200.042 142.754 177.744 261.53-22.299 118.776-137.484 200.537-261.022 182.057z" fill="#97a6b7"/><path d="m2597.277 1889.819-30.371-6.793-15.686 25.427z" fill="#97a6b7"/><path d="m2898.017 1959.374 35.183 6.969-4.881 26.001z" fill="#97a6b7"/><path d="m3008.804 2110.017 34.87 8.015-12.478 18.028z" fill="#97a6b7"/><path d="m3032.105 2290.096 34.96 9.473-14.827 15.04z" fill="#97a6b7"/><path d="m2927.362 2522.509 33.511 11.384 9.493-27.318z" fill="#97a6b7"/><path d="m2771.788 2624.615 29.864 11.427 6.748-22.377z" fill="#97a6b7"/><path d="m2606.897 2650.403-26.834-10.13 30.555-31.002z" fill="#97a6b7"/><path d="m2462.12 2592.305-31.072-12.745 30.62-25.534z" fill="#97a6b7"/><path d="m2389.174 1979.153 33.533 7.387-17.969 22.089z" fill="#97a6b7"/><path d="m2272.393 2231.131 30.062 10.373 2.29-25.76z" fill="#97a6b7"/><path d="m2304.037 2428.767 29.294 10.592 6.22-19.566z" fill="#97a6b7"/><path d="m3063.29 2298.455-43.289-8.05c2.385-29.141.663-57.868-4.724-85.563l40.573-14.347c11.088-3.921 16.963-16.357 13.144-27.803l-10.185-30.533c-3.842-11.516-16.001-17.764-27.182-13.926l-39.984 13.721c-12.394-26.721-28.477-51.734-47.78-74.276l27.485-31.794c7.886-9.123 6.879-23.266-2.261-31.626l-24.439-22.353c-9.239-8.45-23.231-7.903-31.24 1.259l-27.464 31.42c-24.425-17.49-51.659-31.912-81.26-42.463l7.866-41.898c2.321-12.36-5.88-24.753-18.356-27.69l-33.39-7.859c-12.636-2.974-24.813 4.737-27.159 17.233l-7.952 42.358c-31.938-3.284-63.58-1.907-94.131 3.679l-15.292-42.515c-4.494-12.494-18.348-19.611-30.972-15.868l-33.764 10.012c-12.768 3.786-19.405 17.089-14.796 29.684l15.938 43.551c-28.878 13.235-55.719 30.531-79.616 51.369l-37.658-31.744c-10.677-9-26.663-8.374-35.692 1.439l-24.091 26.184c-9.089 9.879-7.667 25.18 3.161 34.134l39.068 32.307c-17.314 25.566-31.082 53.872-40.491 84.403l-52.312-9.728c-14.079-2.618-27.529 5.899-29.994 19.032l-6.557 34.926c-2.466 13.133 7.01 25.786 21.117 28.253l53.809 9.411c-1.188 31.32 2.318 62.006 9.984 91.323l-52.432 17.993c-13.37 4.588-20.256 18.39-15.35 30.794l13.003 32.877c4.873 12.321 19.585 18.485 32.831 13.801l53.143-18.792c14.897 26.24 33.433 50.319 55.038 71.52l-36.429 41.677c-8.881 10.16-7.51 24.909 3.046 32.903l27.915 21.139c10.438 7.904 25.969 6.087 34.705-4.019l36.239-41.921c25.267 14.623 52.767 26.055 82.016 33.71l-9.85 52.469c-2.346 12.496 6.233 23.952 19.121 25.583l34.056 4.309c12.725 1.61 24.889-7.108 27.21-19.469l9.743-51.898c29.692.484 58.668-2.985 86.336-9.908l17.396 47.535c4.156 11.357 17.033 16.752 28.736 12.08l30.956-12.358c11.578-4.622 17.656-17.487 13.599-28.765l-16.788-46.675c25.374-13.333 48.838-29.864 69.769-49.089l36.888 30.505c9.055 7.488 22.687 5.894 30.459-3.527l20.607-24.978c7.725-9.364 6.752-23.035-2.186-30.569l-35.579-29.991c15.528-23.263 28.126-48.765 37.197-76.089l44.544 7.79c11.482 2.008 22.557-5.93 24.771-17.724l5.889-31.366c2.213-11.795-5.254-23.079-16.713-25.209zm-398.824 192.429c-128.944-19.289-217.448-138.774-193.516-266.256 23.933-127.481 150.005-208.1 277.472-180.945 123.135 26.232 201.703 143.923 179.223 263.667s-138.617 202.167-263.179 183.534z" fill="#d8dee8"/><use fill="url(#b)" xlink:href="#a"/><g clip-path="url(#c)" fill="#fcfdfe"><path d="m1470.251 2732.569c5.286-96.137 5.398-187.079 5.516-283.364l.045-32.101c-2.8-46.367-4.302-92.16-5.754-136.446-3.279-99.998-6.377-194.453-23.303-294.728-.327-5.857-.358-11.545-.387-17.571-.111-21.515-.229-43.761-12.716-65.031l-.287-.884c-50.31-530.353-210.864-1059.211-477.202-1571.877l3.808-1.977c266.511 513.001 427.207 1042.235 477.622 1572.979 12.835 22.147 12.955 45.845 13.063 66.768.032 5.971.06 11.611.358 17.121 16.945 100.317 20.047 194.912 23.332 295.06 1.451 44.256 2.953 90.02 5.755 136.461l-.045 32.233c-.116 96.341-.229 187.341-5.521 283.594z"/><path d="m1465.319 2262.278c-4.702-250.815 127.589-548.75 239.394-754.522 121.08-222.841 244.879-388.599 246.116-390.245l3.433 2.573c-1.235 1.647-124.877 167.197-245.809 389.773-111.546 205.303-243.528 502.478-238.845 752.342z"/><path d="m1296.861 1172.23c-19.82-265.874 20.95-549.493 34.348-642.692 2.561-17.827 4.254-29.604 4.178-31.892l4.288-.144c.086 2.561-1.233 11.859-4.221 32.649-13.381 93.085-54.1 376.354-34.315 641.76z"/><path d="m1392.497 1597.377c-89.722-229.057-558.778-432.149-563.505-434.174l1.688-3.943c4.744 2.03 475.442 205.844 565.811 436.555z"/></g><use fill="url(#d)" xlink:href="#V"/><g clip-path="url(#e)" fill="#fcfdfe"><path d="m1270.161 2367.679c-121.153-132.543-226.121-279.829-311.989-437.769-86.606-159.304-152.621-327.329-196.204-499.414-24.992-98.676-42.635-199.21-52.436-298.808l4.366-.427c9.784 99.377 27.387 199.693 52.326 298.159 43.493 171.728 109.371 339.411 195.807 498.393 85.698 157.628 190.46 304.626 311.371 436.905z"/><path d="m957.831 2554.319-1.992-3.913c53.896-27.455 117.471-48.865 188.961-63.636 34.066-7.039 67.906-11.685 100.582-13.807l.286 4.381c-32.474 2.107-66.113 6.725-99.978 13.727-71.11 14.69-134.313 35.971-187.859 63.248z"/><path d="m1014.662 2026.867c-149.844-144.95-468.815-131.703-472.012-131.532l-.206-4.386c3.232-.141 324.059-13.514 475.272 132.764z"/><path d="m829.891 1648.571c-44.851-231.244 128.459-498.47 130.214-501.141l3.667 2.41c-1.746 2.658-174.079 268.421-129.571 497.897z"/></g><path d="m3215.857 2772.76-2593.807-22.798v67.456c0 18.309 11.313 33.877 26.635 36.651l733.451 132.832c8.704 1.576 17.531 1.995 26.315 1.247l1779.219-151.45c15.884-1.352 28.187-16.969 28.187-35.779z" fill="url(#g)"/><path d="m2274.574 2663.411-1625.702 123.402c-29.091 2.208-52.744-21.256-52.744-52.414v-1248.322c0-31.158 23.653-56.417 52.744-56.417h1625.703c23.967 0 43.344 22.833 43.344 51v1128.46c-.001 28.166-19.378 52.471-43.345 54.291z" fill="url(#h)"/><path d="m2300.496 2663.411-1625.702 123.402c-29.092 2.208-52.744-21.256-52.744-52.414v-1248.322c0-31.158 23.653-56.417 52.744-56.417h1625.702c23.967 0 43.344 22.833 43.344 51v1128.46c0 28.166-19.377 52.471-43.344 54.291z" fill="url(#i)"/><path d="m2249.851 2583.852-1514.172 107.191c-23.674 1.676-42.912-17.583-42.912-43.019v-1092.907c0-25.436 19.238-46.143 42.912-46.248l1514.172-6.731c19.771-.088 35.763 18.622 35.763 41.791v995.443c0 23.167-15.992 43.081-35.763 44.48z" fill="url(#k)"/><path d="m1545.06 1463.805c0 11.599-8.367 21.029-18.7 21.063-10.346.034-18.741-9.363-18.741-20.988s8.396-21.056 18.741-21.064c10.333-.008 18.7 9.389 18.7 20.989z" fill="#fff"/><path d="m1908.809 2321.039c-125.327-72.43-223.871 19.347-318.974-71.205-57.657-54.899-29.35-95.837-100.296-177.877-78.578-90.866-129.737-60.321-208.706-142.101-99.852-103.405-49.911-183.857-135.922-258.099-104.342-90.066-216.869-6.704-316.195-93.08-42.84-37.255-66.346-91.416-78.62-149.017h-97.186c-17.03 0-30.86 14.826-30.86 33.115v1293.993c0 18.289 13.83 32.061 30.86 30.762l1656.857-126.324c8.131-.62 15.341-5.719 19.968-13.112-121.286-4.748-195.799-48.421-243.43-93.568-93.178-88.32-77.016-175.418-177.496-233.487z" fill="#fff" opacity=".48"/><path d="m2365.292 2657.814-1743.243 129.893 760.086 137.655c8.704 1.576 17.531 1.995 26.315 1.247l1807.406-153.849-822.834-114.063c-9.202-1.276-18.483-1.572-27.73-.883z" fill="url(#l)"/><path d="m876.416 2790.973 1451.301-109.75 449.165 61.762-1438.799 117.319z" fill="url(#m)" opacity=".3"/><g fill="#fff" opacity=".75"><path d="m1001.694 1594.687-166.735.582v-53.958h166.735z"/><path d="m1875.315 1591.637-767.712 2.68v-53.006h767.712z"/><path d="m1268.538 1683.339-160.935 1.522v-53.007l160.935-.959z"/><path d="m2112.77 1675.357-741.975 7.015v-52.087l741.975-4.425z"/><path d="m1268.538 1772.923-160.935 2.481v-53.006l160.935-1.92z"/><path d="m2112.77 1759.906-741.975 11.44v-52.087l741.975-8.85z"/><path d="m1001.694 1868.212-166.735 3.565v-53.958l166.735-2.983z"/><path d="m1875.315 1849.532-767.712 16.416v-53.007l767.712-13.735z"/><path d="m1268.538 1952.09-160.935 4.401v-53.006l160.935-3.839z"/><path d="m2112.77 1929.003-741.975 20.29v-52.087l741.975-17.7z"/><path d="m1268.538 2041.673-160.935 5.361v-53.006l160.935-4.799z"/><path d="m2112.77 2013.552-741.975 24.715v-52.087l741.975-22.125z"/><path d="m1268.538 2131.257-160.935 6.32v-53.006l160.935-5.758z"/><path d="m2112.77 2098.101-741.975 29.14v-52.088l741.975-26.549z"/><path d="m1528.636 2209.074-155.381 7.03v-52.08l155.381-6.486z"/><path d="m2226.071 2177.524-598.677 27.083v-51.192l598.677-24.993z"/><path d="m1001.694 2324.087-166.735 8.537v-53.958l166.735-7.955z"/><path d="m1875.315 2279.356-767.712 39.308v-53.006l767.712-36.628z"/><path d="m1268.538 2400.008-160.935 9.2v-53.007l160.935-8.638z"/><path d="m2112.77 2351.747-741.975 42.415v-52.088l741.975-39.824z"/><path d="m1268.538 2489.591-160.935 10.16v-53.007l160.935-9.598z"/><path d="m2112.77 2436.295-741.975 46.841v-52.088l741.975-44.25z"/><path d="m1001.694 2597.612-166.735 11.52v-53.958l166.735-10.938z"/><path d="m1875.315 2537.251-767.712 53.043v-53.006l767.712-50.363z"/></g><path d="m2915.91 2023.239c-94.691 186.888-223.458 206.74-261.428 208.628v.152s1.106.091-1.726.031c-2.832.061-1.726-.031-1.726-.031v-.152c-34.519-1.553-124.14-15.376-209.119-125.353-17.934-23.201-35.717-50.696-52.22-83.275-110.007-217.092-30.018-328.896-30.018-328.896l291.357-.7v-.031l1.726.031 1.726-.031v.031l124.14.305 167.706.395s79.589 111.804-30.418 328.896z" fill="url(#o)"/><ellipse cx="2653.208" cy="1698.872" fill="url(#q)" rx="295.823" ry="37.468"/><path d="m2915.91 2023.239c-94.691 186.888-223.458 206.74-261.428 208.628v.152s1.106.091-1.726.031c-2.832.061-1.726-.031-1.726-.031v-.152c-34.519-1.553-124.14-15.376-209.119-125.353.488-101.269 235.45-170.081 308.859-217.031 92.865-59.373 18.146-190.603 18.146-190.603 3.593-1.705 7.094-3.349 10.595-4.932l167.262.395c-.001 0 79.144 111.804-30.863 328.896z" fill="url(#r)" opacity=".3"/><ellipse cx="2203.126" cy="1172.333" fill="url(#s)" rx="154.259" ry="197.385"/><path d="m3177.34 1216.802c0 245.56-242.942 444.596-542.61 444.596-46.036 0-90.702-4.688-133.39-13.548-235.178-48.687-409.218-223.212-409.218-431.048 0-245.531 242.942-444.597 542.608-444.597 84.189 0 163.9 15.711 235.027 43.753 181.986 71.765 307.583 224.308 307.583 400.844z" fill="url(#t)"/><path d="m2272.385 1419.749 418.37 36.514c92.486 8.072 172.27-64.277 175.505-162.617l3.452-104.932c1.485-45.138-33.075-82.786-76.609-83.908l-596.407-15.381c-34.636-.893-62.382 30.587-62.382 70.177v92.109c-.001 86.42 60.923 161.305 138.071 168.038z" fill="#f4f7fa"/><path d="m2262.343 1359.744 447.662 32.954c66.114 4.867 122.599-47.391 124.794-117.218l1.457-46.344c1.407-44.78-32.774-82.293-75.775-83.607l-533.677-16.315c-34.994-1.07-63.067 30.379-63.119 70.102l-.054 41.13c-.081 62.006 43.657 115.245 98.712 119.298z" fill="url(#u)"/><path d="m2524.793 1319.642c-4.213-6.925-6.762-14.573-6.623-22.657.452-26.207 26.715-46.19 58.991-44.56 32.65 1.649 58.907 24.732 58.305 51.482-.186 8.251-3.147 15.716-7.795 22.216z" fill="#d8dee8"/><path d="m2249.33 1302.291c-3.881-6.576-6.274-13.846-6.236-21.537.122-24.933 23.619-44.006 52.773-42.533 29.469 1.488 53.397 23.36 53.152 48.784-.076 7.843-2.662 14.947-6.78 21.139z" fill="#d8dee8"/><path d="m3177.34 1216.802c0 245.56-242.942 444.596-542.61 444.596-46.036 0-90.702-4.688-133.39-13.548-42.201-133.209 196.295-279.297 333.463-372.376 168.041-114.026 34.954-459.516 34.954-459.516 181.986 71.765 307.583 224.308 307.583 400.844z" fill="url(#v)" opacity=".3"/><ellipse cx="3103.29" cy="1249.743" fill="url(#w)" rx="154.259" ry="197.385"/><path d="m1606.389 2393.228c36.573-20.269 25.866-135.304-23.751-216.137-70.452-114.774-224.86-169.565-256.515-135.382-32.396 34.983 60.857 166.304 76.005 187.636 54.951 77.384 161.001 187.859 204.261 163.883z" fill="url(#x)"/><path d="m1937.175 3126.404c-6.83 7.542-8.386 21.429-2.448 28.271 5.837 6.726 14.615 1.681 39.51 2.425 26.666.798 33.628 7.094 51.749 2.095 7.321-2.024 20.251-6.932 20.006-12.16-.173-3.677-6.756-5.574-28.741-12.941-31.207-10.454-31.07-11.025-37.697-12.122-16.646-2.758-33.358-5.526-42.379 4.432z" fill="url(#y)"/><path d="m1954.26 3082.91 13.375 44.49c-1.012 2.386-14.608 10.347-26.277 5.304l-19.863-43.18z" fill="url(#z)"/><path d="m1768.056 3165.5c-6.831 7.542-8.387 21.43-2.448 28.272 5.837 6.727 14.615 1.683 39.509 2.424 26.666.797 33.628 7.094 51.749 2.096 7.322-2.024 20.251-6.932 20.006-12.161-.172-3.675-6.756-5.573-28.741-12.939-31.207-10.455-31.069-11.025-37.697-12.123-16.645-2.757-33.359-5.527-42.378 4.431z" fill="url(#A)"/><path d="m1785.14 3122.008 13.375 44.49c-1.011 2.386-14.607 10.346-26.276 5.303l-19.863-43.18z" fill="url(#B)"/><path d="m1032.792 2049.147c42.432-14.46 107.277-31.265 187.148-31.255 89.925.01 162.144.018 212.01 42.52 121.024 103.15-14.433 350.219 54.958 533.185 7.6 20.04 29.716 83.573 10.481 152.096-3.545 12.63-10.847 23.575-23.332 42.103-73.305 108.756-279.216 117.669-373.542 23.376-49.852-49.835-94.675-40.708-95.874-97.572-4.731-224.456 30.094-448.346 28.151-664.453z" fill="url(#C)"/><path d="m1084.993 2319.312c-17.142-46.934.62-100.66-37.6-124.113-14.006-8.594-31.413-12.236-50.375-11.818 2.268 164.973 5.515 329.789 9.528 501.96 1.326 56.865 8.436 59.679 63.558 109.515 63.869 57.742 173.934 76.592 268.336 57.7-123.636-76.034-211.85-154.796-199.215-222.307 14.713-78.623 158.694-101.839 152.9-157.739-6.141-59.245-169.66-50.595-207.132-153.198z" fill="url(#D)" opacity=".4"/><path d="m1072.114 2054.223c-41.565-28.062-141.711 42.706-197.225 105-25.802 28.95-115.638 129.748-93.318 265.155 3.636 22.066 20.383 125.232 108.698 175.766 79.073 45.248 185.846 33.609 271.394-30.475 11.689-10.374 23.382-20.745 35.074-31.121 11.502-12.431 23.005-24.863 34.506-37.297-18.081-15.04-48.802-36.736-91.944-50.656-65.742-21.213-108.963 10.26-124.686-10.459-19.358-25.509 39.574-73.035 55.038-181.157 4.17-29.178 48.891-173.411 2.463-204.756z" fill="url(#E)"/><path d="m1140.298 2760.249c-27.468 89.388 23.389 53.048 126.964 2.02 109.085-53.743 347.536-130.922 450.283-29.83 76.523 75.292 22.391 194.338 140.784 325.375 20.855 23.082 40.621 39.204 52.973 48.559 21.336-8.829 42.672-17.656 64.009-26.486 8.371-48.886 34.739-237.342-83.873-406.125-28.677-40.806-83.225-119.152-176.576-152.296-252.374-89.601-549.234 156.341-574.564 238.783z" fill="url(#G)"/><path d="m1039.591 2676.85c-17.783 51.343-1.777 110.349 27.279 147.009 64.5 81.38 209.3 72.82 299.743 42.766 110.047-36.565 134.626-103.158 177.902-86.791 67.247 25.435 19.4 191.027 140.785 325.376 20.855 23.081 40.621 39.2 52.972 48.56 21.335-8.831 42.672-17.658 64.008-26.49 16.115-113.837 4.339-205.046-7.932-263.306-14.073-66.809-26.68-126.661-73.753-184.383-58.486-71.715-134.911-96.902-178.763-110.73-185.527-58.502-456.038-25.413-502.241 107.989z" fill="url(#H)"/><path d="m1641.142 2538.039-500.844-7.476 133.182 64.276 368.944-24.147z" fill="url(#J)"/><path d="m1122.622 2543.871v.004c0 9.372 5.867 17.745 14.675 20.948l160.037 62.739.728-43.497-157.764-53.503c-8.853-2.543-17.676 4.101-17.676 13.309z" fill="url(#K)"/><path d="m1194.126 2523.77c-3.073-.685 14.976-36.648 29.145-32.498 14.166 4.151 83.465 44.312 89.763 60.85 6.3 16.536 6.3 16.536 6.3 16.536s-30.228 2.363-48.976-3.936c-18.747-6.3-51.235-35.379-76.232-40.952z" fill="url(#L)"/><path d="m1311.347 2278.882-35.302 321.441c-1.219 11.091 14.309 27.616 25.454 27.088l517.9-31.794c8.511-.405 15.596-6.667 17.036-15.064l65.003-310.455c1.94-11.297-18.368-22.966-29.828-22.646l-542.726 15.261c-9.062.254-16.547 7.155-17.537 16.169z" fill="url(#M)"/><path d="m1323.184 2288.252-35.306 321.443c-1.216 11.092 7.764 20.647 18.91 20.122l524.449-24.828c8.51-.403 15.594-6.669 17.037-15.063l53.579-311.875c1.941-11.3-6.945-21.549-18.405-21.226l-542.727 15.26c-9.061.254-16.548 7.157-17.537 16.167z" fill="url(#N)"/><path d="m1631.14 2529.667c-45.793-19.408-29.629-56.421-83.705-102.54-71.339-60.843-144.052-34.457-169.507-81.615-7.926-14.688-11.714-37.542 2.095-74.531l-39.301 1.104c-9.062.253-16.549 7.156-17.538 16.167l-35.306 321.443c-1.214 11.091 7.765 20.647 18.91 20.122l524.449-24.828c8.51-.403 15.594-6.666 17.037-15.063l7.393-43.036c-15.913-8.855-34.927-16.908-57.114-21.408-76.941-15.607-114.691 26.53-167.413 4.185z" fill="url(#O)" opacity=".3"/><path d="m1228.338 1895.035c.278 33.338-3.441 59.777-6.959 77.883-4.03 20.746-6.934 26.105-10.641 30.453-5.579 6.548-14.034 12.038-61.806 23.884-25.996 6.444-29.34 6.269-29.916 8.849-2.8 12.585 68.087 55.476 141.322 45.14 44.822-6.327 85.602-31.898 83.1-45.327-2.519-13.515-47.292-6.262-60.636-30.712-9.281-17.009 1.124-41.154 13.424-61.151-11.914-22.32-55.977-26.699-67.888-49.019z" fill="url(#P)"/><path d="m1322.394 1937.425c13.778-10.931 20.592-34.505 12.704-52.584-6.787-15.556-22.28-21.556-31.555-25.153-26.877-10.416-64.852-7.954-83.656 14.383-11.142 13.237-3.733 48.7-2.762 54.981 1.101 7.104 5.541 10.599 8.92 16.633 4.682 8.369 11.969 21.632 23.751 43.708 2.644-4.92 6.277-10.917 11.194-17.163 1.893-2.404 9.417-11.758 18.914-18.667 19.029-13.851 29.429-5.777 42.49-16.138z" fill="url(#R)"/><path d="m1230.276 1968.324s10.433 34.631 47.318 41.717c33.024 6.344 56.745-65.242 40.03-86.098-5.578-6.957-18.88-12.707-30.97-12.484-7.142.133-10.116 2.31-21.787 2.298-10.769-.01-13.325-1.869-17.037-.101-4.642 2.214-9.478 9.345-8.664 32.289-4.563-7.886-11.372-12.23-17.289-11.115-.944.18-3.568 1.115-5.422 3.087-6.707 7.134-1.877 19.735 13.821 30.407z" fill="url(#S)"/><path d="m1247.494 1908.918c1.263 1.575-5.047 6.172-7.557 14.348-4.875 15.871 6.355 39.371 22.504 45.322 9.548 3.518 13.781-1.687 30.426.82 10.305 1.552 18.323 5.003 23.276 7.518.505 18.931-8.855 35.238-22.744 40.317-14.953 5.468-29.751-4.066-35.938-8.054-4.138-2.667-17.409-11.18-21.526-26.455-4.287-15.918 5.639-22.255-.981-33.989-3.338-5.919-8.807-9.53-12.267-20.207-.94-2.901-1.427-5.377-1.688-7.026 10.691-6.694 24.669-14.876 26.495-12.594z" fill="url(#T)"/><path d="m1302.656 1980.383s-7.968 1.837-19.909-2c-.581-.189-1.277-.185-1.431.102-.578 1.077 5.855 8.256 13.542 8.108 5.459-.107 10.672-3.89 10.307-5.294-.158-.59-1.325-.823-2.509-.916z" fill="url(#U)"/></svg>