<svg enable-background="new 0 0 500 500" viewBox="0 0 500 500" xmlns="http://www.w3.org/2000/svg"><path d="m210.811 267.454c67.941 18.751 139.166 25.548 209.429 19.984-34.075 48.598-69.775 88.899-102.63 138.247-3.46 5.197-12.864 13.4-18.651 15.747-4.216 1.71-8.933 1.485-13.476 1.232-14.994-.833-29.989-1.667-44.983-2.5-13.174-.732-26.523-1.487-39.289-5.079-5.167-1.454-11.364-2.132-11.74-8.101-.423-6.713 1.954-14.701 2.849-21.387 3.931-29.364 7.861-58.727 11.792-88.091 2.233-16.684 4.466-33.368 6.699-50.052z" fill="#fff"/><path d="m447.002 241.236c.633-.239 1.295-.467 1.962-.394.668.074 1.345.531 1.497 1.234.181.832-.401 1.622-.997 2.186-1.318 1.247-2.893 2.129-4.461 2.978-4.253 2.303-8.576 4.454-12.962 6.447-.151-.647-.8-2.168-.598-2.796.196-.611 1.425-1.316 1.892-1.701 1.396-1.15 2.849-2.22 4.35-3.204 2.96-1.939 6.078-3.444 9.317-4.75z" fill="#313b59"/><path d="m431.93 235.189c1.169-2.121 2.557-4.241 4.642-5.472 1.008-.595 2.529-.842 3.165.14.525.811.062 1.877-.403 2.724-2.784 5.067-5.568 10.134-8.352 15.201-.73-.396-3-1.146-3.352-1.907-.371-.803.705-2.738 1.004-3.532.929-2.47 2.324-4.724 3.296-7.154z" fill="#313b59"/><path d="m419.289 230.046c.054-.89.143-1.805.558-2.594s1.233-1.429 2.123-1.375c.839.051 1.547.706 1.901 1.469s.419 1.623.467 2.463c.285 4.976.151 9.966.018 14.949-.002.087-3.88.628-4.187.326-.636-.625-.479-4.045-.567-4.963-.328-3.413-.522-6.849-.313-10.275z" fill="#313b59"/><path d="m402.935 236.934c-.274-.943-.487-1.937-.31-2.904.177-.966.826-1.902 1.774-2.157.828-.222 1.725.111 2.385.658s1.126 1.287 1.581 2.013c2.89 4.611 5.78 9.222 8.67 13.833-.902.649-1.787 1.332-2.71 1.951-1.001.672-1.223.61-2.166-.144-1.452-1.161-2.798-2.47-4.011-3.879-2.343-2.72-4.223-5.905-5.213-9.371z" fill="#313b59"/><path d="m411.76 249.903c2.487-3.472 6.54-5.776 10.796-6.136 2.701-.229 5.563.351 7.649 2.082 2.425 2.013 3.462 5.244 3.967 8.355.621 3.827.604 7.822-.615 11.503s-3.731 7.023-7.206 8.743-7.924 1.604-11.027-.721c-3.76-2.818-4.241-7.282-5.606-11.41-1.378-4.165-.544-8.805 2.042-12.416z" fill="#7991d1"/><path d="m410.33 259.948c1.309-.427 2.728-.398 4.086-.171 3.302.553 6.393 2.293 8.578 4.829 2.185 2.537 3.449 5.851 3.506 9.198.028 1.622-.516 3.598-2.094 3.971-1.082.255-2.154-.385-3.068-1.017-3.956-2.737-7.641-5.866-10.983-9.326-2.343-2.424-4.502-6.025-.025-7.484z" fill="#313b59"/><path d="m398.297 266.391c3.941-2.87 8.491-5.402 13.363-5.234 4.166.144 8.172 2.379 10.63 5.746 2.459 3.367 3.374 7.776 2.639 11.88-1.39 7.763-8.039 13.44-14.766 17.556-7.743 4.738-16.178 8.341-24.954 10.661-4.093 1.082-8.044.631-9.728-3.749-1.051-2.734-1.063-6.53.006-9.274 2.546-6.538 7.838-13.221 12.514-18.35 3.111-3.413 6.563-6.517 10.296-9.236z" fill="#7991d1"/><path d="m421.837 278.89c-1.739 2.965-3.622 5.717-6.06 8.16-2.42 2.426-5.158 4.515-8.067 6.321-6.357 3.947-13.438 6.337-20.272 9.284-.141.061-.04.29.104.247 7.316-2.21 14.626-5.085 21.095-9.201 5.526-3.516 11.071-8.371 13.773-14.476.168-.381-.352-.712-.573-.335z" fill="#4c5980"/><path d="m414.434 282.939c-.82.616-1.4 1.508-2.082 2.271-.709.793-1.467 1.533-2.244 2.26-1.574 1.472-3.275 2.779-5.12 3.894-.244.148-.028.514.223.382 1.93-1.015 3.755-2.231 5.423-3.638.83-.7 1.601-1.482 2.333-2.283.706-.773 1.509-1.583 1.865-2.58.075-.212-.21-.447-.398-.306z" fill="#4c5980"/><path d="m430.911 251.686c-.156-.384-.674-.238-.616.17.215 1.497.558 2.95.641 4.467.074 1.345.025 2.699-.119 4.038-.313 2.899-1.194 5.763-2.551 8.341-.132.251.234.468.382.223 1.573-2.599 2.583-5.441 2.988-8.453.375-2.796.349-6.136-.725-8.786z" fill="#4c5980"/><path d="m221.12 216.5c1.019-.437 2.228-.817 3.191-.269.931.529 1.249 1.782.991 2.821s-.968 1.902-1.702 2.681c-3.589 3.806-8.314 6.527-13.408 7.722-.785-1.19-1.961-3.135-1.198-4.39.79-1.3 2.492-2.485 3.659-3.436 2.566-2.09 5.423-3.825 8.467-5.129z" fill="#313b59"/><path d="m200.389 209.621c.183-1.944.54-4.044 1.97-5.373.56-.52 1.363-.896 2.083-.641.878.312 1.207 1.363 1.372 2.281 1.016 5.656.318 11.463-.383 17.166-.004.023-4.155.448-4.458.299-.873-.427-.675-3.021-.735-3.962-.205-3.254-.155-6.524.151-9.77z" fill="#313b59"/><path d="m186.467 210.924c-.148-.895-.245-1.829.016-2.698s.963-1.662 1.863-1.774c1.285-.159 2.304 1.022 3.014 2.104 3.145 4.791 5.45 10.131 6.778 15.706-1.655.643-3.23 1.914-4.657.528-1.256-1.22-2.339-2.673-3.277-4.146-1.835-2.878-3.311-6.307-3.737-9.72z" fill="#313b59"/><path d="m176.685 224.221c-.778-.814-1.52-1.71-1.861-2.783s-.204-2.363.6-3.152c.773-.759 1.996-.898 3.042-.618 1.046.281 1.956.917 2.83 1.557 4.012 2.94 7.773 6.204 11.529 9.465.06.052-.873 2.56-1.023 2.738-.557.659-.892.449-1.807.249-1.68-.367-3.323-.902-4.899-1.592-3.152-1.379-6.035-3.375-8.411-5.864z" fill="#313b59"/><path d="m190.126 238.35c-1.401-3.543-.895-7.739 1.162-10.946s5.572-5.394 9.333-6.001c2.234-.361 4.646-.16 6.557 1.054 1.563.993 2.674 2.591 3.349 4.315s.945 3.579 1.107 5.424c.147 1.673.187 3.449-.615 4.924-.73 1.343-2.052 2.241-3.324 3.087-1.85 1.23-3.701 2.46-5.552 3.69-4.666 3.101-10.198-.948-12.017-5.547z" fill="#7991d1"/><path d="m199.4 240.985c1.429-2.599 3.98-4.556 6.861-5.263 1.726-.424 3.631-.392 5.188.465s2.656 2.658 2.35 4.408c-.307 1.76-1.836 3.008-3.259 4.088-1.707 1.296-3.43 2.602-5.367 3.519-1.414.67-5.484 2.257-6.711.609-1.378-1.848-.02-6.085.938-7.826z" fill="#313b59"/><path d="m201.985 262.647c-2.11-4.464-3.898-9.292-3.506-14.214s3.502-9.921 8.294-11.111c3.41-.847 7.084.355 9.898 2.46s4.896 5.028 6.778 7.996c6.969 10.993 11.828 23.32 14.234 36.112.425 2.258.75 4.704-.27 6.763-5.763 11.632-26.732-13.371-29.83-18.04-2.108-3.178-3.968-6.519-5.598-9.966z" fill="#7991d1"/><path d="m225.5 283.728c-1.001-1.254-2.567-2.2-3.773-3.264-1.252-1.104-2.479-2.241-3.656-3.425-2.382-2.397-4.573-4.983-6.541-7.729-3.927-5.477-6.885-11.575-9.181-17.898-.069-.191-.362-.117-.308.085 1.785 6.704 5.003 12.934 9.076 18.536 1.984 2.729 4.177 5.306 6.564 7.692 1.232 1.232 2.513 2.408 3.859 3.515 1.147.943 2.43 2.18 3.83 2.714.139.053.204-.134.13-.226z" fill="#4c5980"/><path d="m220.689 272.394c-.403-.571-.992-1.01-1.514-1.469-.543-.476-1.075-.963-1.591-1.469-1.057-1.037-2.051-2.14-2.973-3.3-1.86-2.341-3.511-4.899-4.845-7.575-.092-.184-.414-.054-.337.142 1.118 2.829 2.57 5.452 4.444 7.85.936 1.197 1.946 2.337 3.025 3.407.995.986 2.152 2.297 3.485 2.811.216.083.438-.211.306-.397z" fill="#4c5980"/><path d="m278.729 407.474c-18.584-16.28-32.832-37.464-40.904-60.814s-9.761-47.8-5.199-72.081c.845-4.498 6.274-8.422 10.631-9.824s9.012-1.494 13.588-1.556c26.201-.351 52.473-.097 78.494 2.986 10.172 1.205 20.453 2.89 29.716 7.263 5.19 2.451 11.451 6.985 15.026 11.475 3.148 25.857-5.132 51.651-19.422 73.43-14.29 21.778-36.465 38.26-61.438 45.665-6.72 1.991-13.57 4.547-20.492 3.456z" fill="#7991d1"/><path d="m370.495 313.13c-16.421-6.062-33.406-10.249-50.685-12.993-17.164-2.725-34.606-3.922-51.983-3.562-4.851.1-9.698.331-14.538.685-4.855.355-9.876.595-14.607 1.807-.516.132-.391.912.131.916 4.348.033 8.704-.596 13.036-.917 4.274-.317 8.554-.533 12.837-.66 8.648-.257 17.309-.134 25.944.408 17.248 1.083 34.441 3.752 51.185 8.042 9.48 2.428 18.854 5.212 28.099 8.433 1.37.477 1.914-1.667.581-2.159z" fill="#313b59"/><path d="m286.847 298.34c1.81-6.567 8.13-11.62 14.934-11.942s13.573 4.111 15.995 10.478c2.423 6.366.315 14.178-4.982 18.461-11.984 9.69-30.04-2.151-25.947-16.997z" fill="#313b59"/><path d="m289.729 299.127c1.477-5.359 6.634-9.483 12.187-9.746s11.076 3.355 13.053 8.551c1.977 5.195.257 11.57-4.066 15.066-9.779 7.907-24.514-1.756-21.174-13.871z" fill="#ffd075"/><path d="m381.059 287.063c-.054-.331-.604-.326-.663 0-.274 1.517-.094 3.203-.103 4.745l-.029 4.653c-.01 1.551-.023 3.102-.005 4.653.01.835.02 1.67.029 2.506.007.624-.091 1.268.257 1.808.016.024.048.023.064 0 .355-.532.269-1.188.286-1.808l.071-2.506c.044-1.551.056-3.102.072-4.653l.048-4.653c.016-1.543.222-3.224-.027-4.745z" fill="#fff"/><path d="m244.438 264.225c-4.91.399-8.905 3.827-11.182 8.046-1.369 2.537-2.101 5.382-2.507 8.221-.218 1.523-.356 3.061-.415 4.599-.052 1.367-.396 3.272.105 4.555.023.06.124.096.157.021.448-1.016.27-2.341.334-3.441.079-1.358.168-2.719.313-4.072.319-2.974.939-5.991 2.24-8.703 2.068-4.309 6.007-8.019 10.955-8.366.55-.039.551-.905 0-.86z" fill="#fff"/><path d="m366.533 273.221c-6.169-3.444-13.029-5.243-19.966-6.346-7.421-1.18-14.947-1.805-22.432-2.429-15.819-1.317-31.691-2.005-47.565-2.051-8.974-.026-17.951.128-26.91.669-.36.022-.366.574 0 .565 31.123-.745 62.421-.455 93.339 3.639 7.983 1.057 15.983 2.778 23.076 6.738.51.285.969-.5.458-.785z" fill="#fff"/><path d="m362.707 330.169c-3.7 12.789-9.478 24.863-17.725 35.357-8.057 10.253-18.198 18.784-29.639 25.033-6.628 3.62-13.616 6.251-20.776 8.599-.375.123-.224.679.163.592 12.851-2.881 25.116-9.623 35.352-17.788 10.481-8.36 19.162-18.916 25.403-30.778 3.466-6.587 6.21-13.573 7.933-20.819.109-.461-.579-.653-.711-.196z" fill="#4c5980"/><path d="m350.851 341.598c-1.804 3.746-3.323 7.578-5.371 11.212-2.118 3.759-4.525 7.359-7.193 10.75-5.212 6.626-11.367 12.4-18.232 17.283-3.876 2.757-7.985 5.169-12.268 7.236-.301.145-.038.581.26.445 15.528-7.065 28.588-19.053 37.27-33.715 2.394-4.042 4.817-8.43 6.116-12.965.099-.34-.422-.579-.582-.246z" fill="#4c5980"/><path d="m299.59 294.504c.314-.626 1.025-1.045 1.721-.964.695.081 1.307.691 1.341 1.39.023.465-.193.924-.528 1.247s-.778.519-1.235.61c-1.356.272-1.823-1.235-1.299-2.283z" fill="#fff"/><path d="m294.959 299.259c.025-.474.353-.927.806-1.065s.999.074 1.21.499c.14.282.131.626.011.917-.12.292-.342.533-.601.714-.767.538-1.467-.271-1.426-1.065z" fill="#fff"/><path d="m319.964 160.241c1.427-10.394 5.651-20.391 12.109-28.66.508-.651 1.709.043 1.889.849s-.28 1.601-.705 2.309c-4.696 7.826-7.257 16.919-7.337 26.046-1.819.311-4.272.212-5.956-.544z" fill="#313b59"/><path d="m328.645 131.233c-1.156-2.068-1.222-4.666-.342-6.865s2.65-3.992 4.758-5.074c2.281-1.171 5.225-1.472 7.31.02 1.243.89 2.032 2.31 2.417 3.79.703 2.704.113 5.714-1.558 7.953-3.119 4.175-9.738 5.268-12.585.176z" fill="#ffd075"/><path d="m341.425 123.581c-.118-.376-.695-.221-.592.163.71 2.657-.374 5.806-2.686 7.352-1.209.809-2.674 1.151-4.119 1.057-.722-.047-1.429-.219-2.107-.469-.354-.131-.686-.297-1.013-.484-.243-.139-.42-.265-.707-.207-.04.008-.074.054-.072.095.036.645 1.101 1.038 1.601 1.255.702.304 1.456.467 2.217.531 1.615.135 3.302-.256 4.651-1.165 2.604-1.754 3.763-5.14 2.827-8.128z" fill="#eb9921"/><path d="m247.136 213.281c-.517-10.484 3.267-20.948 9.579-29.417 6.312-8.47 15.035-15.03 24.561-19.788 14.43-7.209 31.163-10.418 47.087-7.552s30.848 12.129 39.068 25.829c7.082 11.803 8.902 25.972 8.717 39.671-.059 4.334-.364 8.871-2.657 12.574-2.62 4.231-8.203 7.678-12.895 9.49-15.768 6.09-32.29 6.443-49.191 5.27-12.165-.844-21.484-1.189-33.405-3.648-4.9-1.011-14.503-3.963-18.446-7.031-3.781-2.942-6.088-5.915-8.279-10.119-2.462-4.725-3.878-9.98-4.139-15.279z" fill="#7991d1"/><path d="m266.35 217.407c.423-8.648 1.523-17.263 3.287-25.739.745-3.58 1.728-7.349 4.384-9.862 3.044-2.88 7.546-3.438 11.72-3.805 21.709-1.906 44.085-2.45 64.751 4.464 2.416.808 4.913 1.794 6.54 3.755 2.303 2.774 2.295 6.742 2.079 10.34-.43 7.157-1.225 14.292-2.382 21.367-.814 4.977-2.063 10.362-6.026 13.481-3.072 2.417-7.181 2.972-11.081 3.236-8.5.577-17.036.193-25.532-.441-10.771-.805-21.513-2.012-32.194-3.62-3.626-.546-9.188-.387-12.233-2.644-3.144-2.333-3.485-6.993-3.313-10.532z" fill="#313b59"/><path d="m293.468 191.845c-2.52-.245-5.034 1.082-6.72 2.887-1.906 2.042-2.987 4.74-3.693 7.4-.158.597.759 1.035 1.033.435 1.669-3.654 3.868-9.308 8.885-8.792 1.928.198 3.519 1.62 4.41 3.268.548 1.013.837 2.156.96 3.296.134 1.248.008 2.457.053 3.697.041 1.123 1.788 1.469 2.04.276 1.026-4.864-1.269-11.914-6.968-12.467z" fill="#fff"/><path d="m336.447 200.166c-.832-2.122-2.314-3.943-4.33-5.042-4.163-2.271-9.496-1.267-12.406 2.503-1.493 1.934-2.506 4.687-1.836 7.126.204.74 1.219.535 1.279-.173.203-2.413.712-4.664 2.444-6.474 1.687-1.762 4.096-2.562 6.51-2.294 2.4.266 4.58 1.568 5.816 3.658.589.996.97 2.115 1.107 3.265.145 1.222-.085 2.255-.267 3.448-.147.966 1.206 1.774 1.728.729 1-2.001.749-4.723-.045-6.746z" fill="#fff"/><path d="m326.901 217.605c-.044-.258-.313-.393-.545-.415-2.464-.227-4.931-.41-7.402-.544-1.211-.066-2.423-.12-3.635-.163-.583-.021-1.163-.03-1.746-.018-.606.012-1.263-.048-1.844.135-.038.012-.055.041-.084.06-.173-.002-.347.067-.466.259-.623 1.002-1.222 2.016-1.816 3.036-.296.509-.596 1.018-.89 1.528-.08.14-.165.285-.25.432-.104-.547-.242-1.095-.337-1.623-.176-.979-.341-1.959-.497-2.941-.15-.945-.277-1.893-.44-2.836-.081-.47-.16-.94-.237-1.41-.076-.468-.107-.922-.363-1.332-.096-.154-.287-.163-.406-.063-.082-.016-.166-.016-.247.009-.301.092-.479.323-.689.542-.18.188-.334.394-.493.6-.318.411-.636.821-.954 1.232-.323.417-.666.826-.956 1.267-.17.257-.384.557-.505.87-.956-.163-1.965-.169-2.925-.245-1.173-.092-2.345-.189-3.519-.275-1.129-.083-2.259-.163-3.388-.245-1.084-.078-2.283-.296-3.356-.068-.387.082-.31.593 0 .71.984.371 2.187.336 3.226.42 1.129.092 2.259.184 3.388.275s2.259.171 3.388.255c1.106.083 2.281.285 3.388.217.222-.014.378-.165.45-.345.322-.179.598-.51.829-.758.353-.378.664-.795.987-1.199.314-.393.628-.787.942-1.18.099-.123.19-.252.286-.377.048.39.112.778.146 1.126.093.963.237 1.92.381 2.876.142.947.294 1.893.456 2.838.161.944.224 2.033.571 2.926.114.294.434.403.684.328.104.018.216.007.32-.075.443-.353.757-.923 1.056-1.403.311-.501.618-1.005.927-1.507.618-1.005 1.228-2.012 1.817-3.035.013-.023.013-.045.023-.068.41.067.843.062 1.25.092.631.046 1.259.078 1.891.101 1.212.043 2.424.098 3.635.164 2.47.134 4.938.318 7.402.544.259.024.465-.195.545-.415.04-.108.02-.193.002-.302z" fill="#ffd075"/><path d="m365.194 236.094c-3.811 2.098-7.643 3.981-11.775 5.378-4.081 1.38-8.287 2.372-12.538 3.055-9.113 1.464-18.398 1.468-27.591.948-5.397-.305-10.786-.765-16.189-.952-.176-.006-.223.287-.042.314 9.518 1.421 19.214 2.118 28.839 1.973 8.944-.134 17.935-1.203 26.483-3.918 4.594-1.459 9.235-3.348 13.297-5.971.515-.333.059-1.126-.484-.827z" fill="#4c5980"/><path d="m291.144 243.379c-1.102-.2-2.261-.176-3.376-.302-1.133-.128-2.261-.302-3.381-.518-1.074-.207-2.145-.44-3.206-.708-1.117-.283-2.266-.798-3.4-.955-.298-.041-.514.338-.218.516.924.557 2.14.809 3.171 1.111 1.131.332 2.273.618 3.43.845 1.111.218 2.23.393 3.353.529 1.135.138 2.381.357 3.522.254.407-.036.574-.686.105-.772z" fill="#4c5980"/><path d="m270.387 170.035c-13.107 7.941-21.948 21.786-23.41 37.072-.446 4.658-.335 9.528.801 14.083.11.443.72.241.663-.183-1.088-8.088-.955-16.011 1.554-23.85 2.255-7.047 6.2-13.505 11.376-18.785 2.839-2.896 6.031-5.408 9.499-7.509.526-.32.046-1.148-.483-.828z" fill="#fff"/><path d="m359.656 171.717c-18.125-15.694-43.812-20.682-66.503-13.3-3.145 1.023-6.22 2.27-9.191 3.725-2.927 1.434-5.948 3.003-8.445 5.128-.263.224.072.613.355.463 2.625-1.392 5.103-3.043 7.76-4.387 2.617-1.324 5.317-2.478 8.08-3.456 5.561-1.968 11.371-3.235 17.247-3.73 11.461-.966 23.081 1.066 33.583 5.774 5.963 2.673 11.489 6.199 16.511 10.391.418.349 1.023-.244.603-.608z" fill="#fff"/><path d="m156.025 420.141c.815.027-2.423.594-1.608.62-26.261 3.805-53.479 2.195-79.123-4.627-8.622-26.157-10.523-54.433-7.192-81.772 9.4-5.759 19.664-10.106 30.341-12.849 8.819-2.267 18.321-3.527 27.286-1.932 8.5 1.512 17.131 3.324 24.478 7.858 1.95 10.913 4.42 21.702 6.371 32.616 3.512 19.649.763 40.167-.553 60.086z" fill="#b345b5"/><path d="m142.122 327.292c.434-1.051.743-2.236.827-3.394-5.498-2.101-11.39-3.28-17.221-4.318-8.965-1.595-18.466-.334-27.286 1.932-2.377.611-4.729 1.314-7.059 2.081-.171 1.665 1.304 3.659 2.717 5.52 2.871 3.781 6.485 7.019 10.657 9.303 6.431 3.52 14.21 4.69 21.28 2.749 7.07-1.942 13.29-7.096 16.085-13.873z" fill="#fff"/><path d="m89.327 357.194c-1.054-4.833-3.523-9.374-6.663-13.167-1.587-1.917-3.39-3.663-5.367-5.175-1.82-1.393-4.144-3.094-6.41-3.605-.384-.087-.549.386-.256.606.946.709 2.067 1.185 3.073 1.812 1.012.631 1.98 1.324 2.923 2.055 1.89 1.465 3.624 3.121 5.163 4.952 3.15 3.748 5.256 8.094 6.613 12.777.173.594 1.055.345.924-.255z" fill="#d66ec0"/><path d="m148.198 327.107c.678-.402 1.582-.209 2.214.261s1.051 1.167 1.444 1.85c4.019 6.999 7.025 14.578 8.896 22.43 1.565 6.569 2.752 13.103 3.732 19.784 1.662 11.326 3.324 22.653 4.985 33.979.093-.206 8.802 5.639 13.005 8.896 3.66 2.835 7.35 5.69 11.499 7.743-.195 1.886-.573 3.881-1.155 5.685-.583 1.804-1.586 3.526-3.117 4.645-1.159.846-2.552 1.304-3.936 1.685-8.036 2.211-16.659 2.245-24.712.099-3.417-.911-7.03-2.467-8.599-5.636-.899-1.816-.99-3.915-1.009-5.941-.05-5.165.25-10.333.898-15.457 2.747-21.738-2.756-43.938-4.064-65.811-.279-4.682.199-9.531-.081-14.212z" fill="#b345b5"/><path d="m157.481 364.14c-.029-.327-.54-.333-.516 0 .566 7.859.745 15.738.6 23.616-.146 7.898-1.004 15.702-1.516 23.573-.023.354.566.442.627.085 1.304-7.667 1.554-15.636 1.699-23.401.15-7.968-.184-15.937-.894-23.873z" fill="#d66ec0"/><path d="m154.166 345.887c-.95-4.968-1.845-9.946-2.74-14.925-.053-.295-.503-.17-.45.124.876 4.897 1.753 9.794 2.575 14.7.82 4.893 1.488 9.853 2.644 14.681.072.302.594.246.555-.075-.589-4.869-1.663-9.69-2.584-14.505z" fill="#d66ec0"/><path d="m167.378 423.082c3.129-.157 6.197-1.36 8.598-3.373.512-.43 1.012-.921 1.227-1.554s-.06-1.485-.634-1.827c-4.953 1.662-10.425 1.741-15.424.222.841 3.01 3.231 5.659 6.233 6.532z" fill="#fff"/><path d="m135.976 413.152c7.707-2.441 16.271-2.073 23.74 1.021 4.458 1.847 8.05 5.306 11.784 8.362s7.003 6.818 8.818 11.289c-16.769.466-33.636.554-50.389-.312-.847-7.17 1.212-14.998 6.047-20.36z" fill="#fff"/><path d="m89.492 373.421c-8.061 14.015-16.155 27.983-24.215 41.997 23.671-.779 47.318-1.895 70.989-2.673-4.052 6.013-6.63 13.61-6.38 20.856-25.4 3.218-51.379 5.399-76.912 7.293-6.233-4.674-11.266-10.94-14.378-18.082 7.898-30.083 17.762-59.651 29.507-88.451 7.369 3.101 14.06 8.348 17.84 15.392 3.78 7.045 7.535 16.738 3.549 23.668z" fill="#b345b5"/><path d="m90.881 371.306c.505-1.403.724-2.955.756-4.404.045-2.035-.251-4.07-.857-6.012-.131-.421-.782-.246-.663.183.515 1.866.734 3.791.637 5.726-.081 1.63-.399 3.176-.722 4.751-5.846 10.093-11.923 20.092-17.447 30.364-.21.39.36.724.594.347 6.195-9.97 17.816-30.827 17.702-30.955z" fill="#d66ec0"/><path d="m62.46 415.693c-.523-.052-1.093.094-1.61.176-.504.079-1.006.167-1.507.264-1.037.201-2.067.439-3.087.713-1.016.273-2.04.565-3.027.933-.438.163-.868.355-1.296.542-.463.202-1.024.365-1.377.738-.109.116-.032.313.13.314.453.005.877-.219 1.3-.365.481-.165.968-.311 1.451-.471 1.004-.333 2-.673 3.02-.957.982-.273 1.974-.511 2.973-.715.499-.102 1-.195 1.503-.28.525-.088 1.109-.103 1.607-.288.333-.124.269-.569-.08-.604z" fill="#d66ec0"/><path d="m133.245 412.61c-9.571.312-19.141.646-28.711.987-4.698.167-9.396.318-14.094.473-2.436.08-4.872.161-7.308.241-2.234.074-4.64-.062-6.835.38-.223.045-.138.337.049.362 2.368.31 4.924-.019 7.308-.101 2.262-.078 4.524-.155 6.786-.233 4.785-.164 9.57-.332 14.355-.484 9.484-.301 18.967-.609 28.45-.938.442-.015.444-.702 0-.687z" fill="#d66ec0"/><path d="m100.274 324.245c-1.171-6.904-2.342-13.807-3.514-20.711-.175-1.031-.23-2.337.677-2.857.518-.297 1.163-.202 1.751-.098 2.678.473 5.357.947 8.035 1.42 2.666.471 5.708-.492 8.384-.08 2.676.411 5.342 1.684 6.826 3.949.787 1.2 1.199 2.601 1.602 3.979 1.242 4.254 2.484 8.509 3.727 12.763-3.777 3.102-8.602 5.143-13.477 5.496-4.875.352-9.826-1.334-14.011-3.861z" fill="#fff"/><path d="m91.585 297.011c6.207 8.778 17.204 13.93 27.922 13.081 2.013-.16 3.466-1.636 4.681-3.25 3.89-5.165 6.382-8.031 7.768-14.347.881-4.012-1.586-10.867-4.396-13.863-.187-5.846-1.341-11.863-3.165-17.421-6.951-3.035-15.246-3.663-22.42-1.197-7.173 2.466-13.282 8.224-15.565 15.457-2.281 7.234.796 15.347 5.175 21.54z" fill="#fff"/><path d="m125.044 304.652c-2.314 5.333-7.229 5.214-12.263 4.432-3.996-.62-8.343-.952-11.719-3.364-.05-.036-.113.045-.066.086 3.978 3.499 9.445 4.629 14.623 4.737 3.739.078 9.419-1.153 9.687-5.82.007-.134-.206-.201-.262-.071z" fill="#dfe6ee"/><path d="m96.662 302.502c-3.818-6.483-5.135-14.396-3.623-21.766.643-3.136 1.654-6.272 3.635-8.786 3.862-.718 7.176-3.731 8.076-7.555 5.508 2.443 12.034 2.381 17.739.441 5.704-1.94 10.626-6.089 13.503-11.383 2.312-4.255 3.219-9.737.637-13.834-1.511-2.398-4.052-4.025-6.76-4.86-2.709-.836-5.591-.942-8.422-.807-12.936.615-24.747 7.07-33.74 16.389-7.91 3.752-11.936 9.021-12.428 16.276-.491 7.255 2.211 14.418 6.075 20.578 3.839 6.12 9.463 11.061 15.308 15.307z" fill="#313b59"/><path d="m92.536 284.659c-.742-.837-2.08-.994-3.082-.497s-1.663 1.544-1.866 2.644.007 2.244.409 3.288c1.441 3.751 5.533 6.297 9.534 5.932-.956-4.039-2.241-8.262-4.995-11.367z" fill="#fff"/><path d="m91.328 279.371c.643 6.131 4.152 11.901 9.301 15.291.835-1.187.148-3.087-.215-4.448-1.949-7.314-3.914-14.766-3.579-22.328.03-.688-.536-1.441-1.191-1.654s-1.393.005-1.941.422-.935 1.008-1.266 1.612c-1.831 3.341-1.506 7.317-1.109 11.105z" fill="#313b59"/><path d="m112.399 294.486c2.843 1.938 6.6 2.467 9.868 1.39-.902 1.634-1.99 3.333-3.731 4.005-1.489.575-3.287.252-4.482-.807s-2.045-3.04-1.655-4.588z" fill="#4c5980"/><path d="m119.157 290.181c.928-.342 1.856-.684 2.785-1.026-.195.383-.441.799-.752 1.096s-.716.513-1.145.529c-.43.017-.683-.22-.888-.599z" fill="#4c5980"/><path d="m109.199 280.303c.019-.241.062-.485.177-.698s.309-.392.546-.442c.262-.056.539.055.738.234.199.18.331.421.441.665.264.586.423 1.218.468 1.859.059.834-.546 1.831-1.418 1.151-.747-.583-1.02-1.881-.952-2.769z" fill="#313b59"/><path d="m119.493 277.768c.019-.241.062-.485.177-.698s.31-.392.546-.443c.262-.056.539.055.738.234s.331.421.441.665c.264.586.423 1.218.468 1.859.059.834-.546 1.831-1.418 1.151-.747-.582-1.021-1.88-.952-2.768z" fill="#313b59"/><path d="m116.917 273.209c-.008-.177-.016-.355-.025-.533 1.285-1.023 3.051-1.443 4.662-1.126.201.366-.607.377-.959.433-1.272.204-2.593.532-3.678 1.226z" fill="#313b59"/><path d="m110.744 273.736c-.06-.167-.119-.335-.179-.502-1.576-.46-3.37-.181-4.742.722-.047.414.705.12 1.051.038 1.256-.294 2.603-.491 3.87-.258z" fill="#313b59"/><path d="m134.495 241.845c-1.253-2.927-4.842-4.48-7.806-4.922-3.85-.574-7.817.31-11.515 1.34-7.146 1.991-14.501 5.327-20.006 10.392-.112.103.034.296.164.212 5.965-3.849 11.927-7.311 18.788-9.339 3.524-1.042 7.297-1.968 10.995-1.779 1.753.09 3.507.478 5.074 1.286 1.538.794 2.628 1.956 3.747 3.24.289.333.705-.09.559-.43z" fill="#4c5980"/><path d="m126.796 243.479c-1.285-.743-3.175-.831-4.633-.943-1.728-.133-3.466-.069-5.183.164-3.316.451-6.427 1.579-9.254 3.37-.213.135-.024.462.198.339 2.875-1.587 6.102-2.647 9.368-3.023 1.563-.18 3.145-.206 4.713-.081.802.064 1.6.164 2.391.308.746.136 1.49.403 2.25.415.295.005.401-.404.15-.549z" fill="#4c5980"/><path d="m151.071 436.802c1.458.408 2.911.83 4.356 1.279 30.989 9.633 65.911 12.115 98.23 13.171 60.233 1.968 90.885-10.345 95.986-12.835-54.635-3.253-143.884-3.786-198.572-1.615z" fill="#313b59"/><path d="m211.993 369.959c-9.813 21.235-19.786 42.603-29.599 63.839-3.697.043-7.462-.103-11.157 0-2.293.064-28.887.09-31.953.092 4.686 1.039 9.335 2.19 13.919 3.539 27.956.255 56.048.675 83.951.864 18.48.126 37.366.214 55.846.259 10.211-21.329 21.058-43.346 31.269-64.675-.812-1.397-1.655-3.005-2.467-4.402-36.464.078-73.346.405-109.809.484z" fill="#bfcad4"/><path d="m183.762 437.747c17.819.208 35.645.425 53.393.545 18.48.126 37.366.214 55.846.259 10.211-21.329 21.058-43.346 31.269-64.675-.148-.254-.297-.521-.447-.787-36.431.115-73.062.119-109.48.242-10.194 21.472-20.388 42.945-30.581 64.416z" fill="#a1b0ba"/><path d="m255.26 401.568c1.773-1.567 4.238-2.321 6.584-2.016 1.686.22 3.385 1.052 4.207 2.54.701 1.271.669 2.83.324 4.24-.493 2.018-1.623 3.913-3.308 5.128s-3.941 1.684-5.913 1.033c-5.209-1.72-5.701-7.562-1.894-10.925z" fill="#fff"/><path d="m232.293 235.903c-25.84-.667-51.969-1.646-77.756.125.023 11.467.047 24.908.07 36.374-5.07 4.045-9.876 8.422-14.34 13.128l22.85-9.19c22.91-.91 44.631-.103 67.462-.309.44-12.706 1.745-27.414 1.714-40.128z" fill="#d66ec0"/><path d="m222.751 247.899s-.002 0-.003 0c.168-.228.064-.462.074-.691.011-.239.008-.479.015-.718.013-.478.04-.957.055-1.435.008-.269.018-.538.014-.807 0-.015-.104-.024-.216-.025-.043-.003-.093-.006-.159-.006-7.228-.02-14.459-.026-21.689-.034-7.194-.008-14.391-.004-21.585.002-4.075.004-8.154.003-12.227.018-.137.001-.223.009-.26.02-.102.002-.192.01-.192.024-.049.957-.004 1.914-.021 2.871-.002.131.002.262.005.393.003.138-.048.277.061.415.012.015.177.018.246.008.017.001.032.001.052.002 1.79.023 3.611.022 5.412.028 1.839.006 3.679.01 5.519.014 3.609.008 7.218.015 10.827.018 7.254.006 14.509.005 21.763-.009 4.104-.008 7.544-.025 11.647-.029.345-.003.617-.007.662-.059z" fill="#fff"/><path d="m206.929 257.538h-.002c.121-.228.046-.462.053-.691.008-.239.006-.478.01-.718.01-.478.029-.957.039-1.435.006-.269.013-.538.01-.807 0-.015-.074-.024-.155-.025-.031-.003-.067-.006-.115-.006-5.194-.02-10.389-.026-15.583-.034-5.169-.008-10.34-.004-15.508.002-2.928.004-5.858.003-8.785.018-.099.001-.16.009-.187.02-.074.002-.138.01-.138.024-.036.957-.003 1.914-.015 2.871-.002.131.002.261.003.392.002.138-.035.278.044.415.009.015.127.018.177.008.012.001.023.001.037.002 1.286.023 2.594.022 3.888.028 1.322.006 2.643.01 3.965.014 2.593.008 5.186.015 7.779.018 5.212.006 10.425.005 15.636-.009 2.948-.008 5.42-.025 8.368-.029.252-.001.447-.005.479-.058z" fill="#fff"/><path d="m214.664 267.178s-.002 0-.003 0c.144-.228.054-.462.063-.691.009-.239.007-.478.012-.718.011-.478.034-.957.047-1.435.007-.269.016-.538.012-.807 0-.015-.089-.024-.185-.025-.037-.003-.08-.006-.136-.006-6.188-.02-12.378-.026-18.568-.034-6.159-.008-12.32-.004-18.479.002-3.489.004-6.981.003-10.468.018-.118 0-.191.009-.222.02-.088.002-.164.01-.165.024-.042.957-.003 1.914-.018 2.871-.002.131.002.262.004.392.002.138-.042.278.052.415.01.016.152.018.21.008.014.001.027.001.044.002 1.532.023 3.091.022 4.633.028 1.575.006 3.15.01 4.725.014 3.089.008 6.179.015 9.27.018 6.21.006 12.422.005 18.631-.009 3.513-.008 6.458-.025 9.971-.029.299-.002.531-.006.57-.058z" fill="#fff"/><path d="m245.227 190.49c-3.496-4.867-6.991-9.733-10.487-14.6-.241-.336-.493-.675-.753-1.009.192-23.748.383-47.495.575-71.243.025-3.044-.57-7.49-3.612-7.593-34.818-1.177-69.666-1.462-104.497-.797-3.503.067-7.75.717-9.725 3.612-.226 26.864-.451 53.729-.677 80.593 1.031 2.974 10.291 2.576 15.825 2.551 29.005-.127 58.01-.253 87.016-.38 1.118.583 2.227 1.06 2.862 1.422 6.499 3.704 13.12 7.179 19.833 10.48.77.376 1.572.757 2.428.775.857.019 1.786-.43 2.047-1.247.284-.889-.29-1.805-.835-2.564z" fill="#eb9921"/><path d="m215.723 142.64c.552 2.587 1.104 5.173 1.655 7.759.243 1.137 1.932.656 1.69-.481-.516-2.418-1.032-4.836-1.548-7.254 2.34.031 4.681.062 7.022.093 1.128.015 1.129-1.795 0-1.81-2.47-.033-4.939-.066-7.409-.099-.288-1.352-.577-2.704-.865-4.056-.181-.849-1.527-.878-1.69 0-.247 1.337-.491 2.674-.737 4.012-1.028-.014-2.057-.028-3.085-.041-2.741-9.358-5.492-18.713-8.168-28.09-.256-.896-1.371-.62-1.474.206-1.15 9.236-2.294 18.472-3.43 27.709-.036-.001-.073-.001-.109-.001-.261-1.257-.522-2.514-.783-3.771-.158-.763-1.448-.826-1.556 0-.164 1.256-.381 2.497-.622 3.732-1.557-.021-3.114-.042-4.671-.063-.275-1.275-.5-2.565-.663-3.871-.108-.87-1.349-1.221-1.597-.223-.336 1.35-.67 2.7-1.005 4.05-1.784-.024-3.568-.048-5.352-.072-.559-2.097-1.122-4.192-1.677-6.29-.255-.964-1.465-.653-1.57.219-.242 2.005-.477 4.012-.716 6.018-.372-.005-.743-.01-1.115-.015-1.276-.017-2.552-.034-3.828-.051-.913-7.749-1.826-15.498-2.71-23.251-.085-.747-1.27-1.102-1.412-.197-1.221 7.781-2.44 15.563-3.662 23.344-.495-.007-.989-.013-1.484-.02-.61-2.507-1.22-5.015-1.831-7.522-.18-.739-1.21-.697-1.41 0-.713 2.484-1.425 4.967-2.138 7.45l-2.543-.034c-.836-2.851-1.673-5.702-2.505-8.554-.215-.737-1.183-.7-1.414 0-.917 2.781-1.655 5.603-2.241 8.459-.166-.003-.333-.007-.5-.011-.985-8.695-2.289-17.35-3.797-25.965-.119-.682-1.255-.704-1.355 0-1.24 8.669-2.864 17.26-4.843 25.768-1.762-.023-3.524-.031-5.285-.019-.07-.011-.14-.009-.211.002-1.71.014-3.42.045-5.126.112-.945.037-.936 1.448 0 1.509 1.569.103 3.142.174 4.716.232.814 3.977 1.659 7.947 2.506 11.917.169.793 1.295.732 1.496 0 1.072-3.898 2.06-7.82 2.978-11.758 2.552.027 5.104.034 7.653.047.202 1.956.4 3.912.577 5.87.09.993 1.392.987 1.492 0 .199-1.968.493-3.915.848-5.849.553.005 1.107.009 1.66.016.781.01 1.562.021 2.343.031.531 1.818 1.063 3.635 1.593 5.453.21.721 1.215.728 1.423 0 .514-1.798 1.028-3.595 1.543-5.393 1.104.015 2.208.029 3.312.044l1.417 5.798c.165.676 1.28.749 1.397 0 .299-1.917.6-3.833.9-5.749 1.752.023 3.504.046 5.256.07.966 8.738 1.94 17.475 2.971 26.205.127 1.073 1.498 1.079 1.622 0 1-8.705 2.05-17.403 3.087-26.104.467.006.935.012 1.402.019 1.073 4.027 2.146 8.054 3.216 12.082.208.782 1.351.799 1.551 0 .996-3.993 1.992-7.986 2.986-11.98.278.004.555.007.833.011.752 3.026 1.781 5.964 3.134 8.807.34.714 1.248.404 1.48-.2 1.068-2.782 1.896-5.621 2.53-8.513.143.002.286.004.429.006.254 1.221.508 2.441.762 3.662.207.996 1.477.632 1.581-.221.138-1.135.272-2.27.41-3.404 3.497.046 6.993.092 10.49.139.821 2.895 1.638 5.791 2.464 8.684.228.798 1.503.905 1.672 0 .536-2.869 1.064-5.739 1.594-8.609.147.002.296.004.446.006m-79.723 7.368c-.62-2.803-1.248-5.604-1.888-8.403 1.332.04 2.666.065 4 .084-.667 2.782-1.369 5.556-2.112 8.319zm4.105-10.273c1.594-7.044 2.947-14.145 4.053-21.289 1.226 7.109 2.18 14.26 2.952 21.436-2.333-.052-4.669-.108-7.005-.147zm12.217.245c-.581-.008-1.162-.019-1.744-.03.404-1.925.868-3.837 1.422-5.728.564 1.925 1.125 3.851 1.688 5.776-.456-.006-.911-.012-1.366-.018zm4.197 4.441c-.252-.858-.502-1.716-.754-2.574.496.007.991.013 1.487.02-.244.851-.489 1.703-.733 2.554zm2.78-4.348c.421-1.47.841-2.941 1.262-4.411l1.085 4.442c-.783-.01-1.565-.021-2.347-.031zm4.757 3.768c-.153-.63-.307-1.26-.46-1.89.252.003.503.007.755.01-.099.626-.197 1.253-.295 1.88zm2.033-3.677c.928-5.934 1.856-11.868 2.786-17.802.67 5.954 1.327 11.91 1.985 17.866-1.59-.022-3.181-.043-4.771-.064zm8.777 21.126c-.727-6.409-1.482-12.814-2.235-19.22 1.206.016 2.411.032 3.617.048.3.004.599.008.899.012-.76 6.386-1.515 12.774-2.281 19.16zm4.092-20.954c.072-.604.144-1.207.216-1.811.162.607.323 1.214.484 1.82-.233-.003-.467-.006-.7-.009zm5.149 10.462c-.767-2.868-1.529-5.738-2.295-8.607 1.472.019 2.945.039 4.417.058-.707 2.85-1.416 5.7-2.122 8.549zm8.377-2.287c-.857-2.018-1.559-4.089-2.11-6.207 1.287.017 2.575.034 3.862.051-.475 2.082-1.054 4.135-1.752 6.156zm6.79-7.903c.969-7.992 1.931-15.984 2.889-23.977 2.316 8.028 4.59 16.068 6.867 24.108-3.253-.044-6.505-.087-9.756-.131zm13.381 6.644c-.454-1.558-.912-3.114-1.368-4.671.74.01 1.48.02 2.22.029-.283 1.548-.568 3.095-.852 4.642z" fill="#fff"/><path d="m449.036 200.748c.712-13.22 1.195-26.463 1.449-39.716.022-1.126.038-2.283-.234-3.342-.273-1.06-3.241-1.078-4.044-1.156-16.901-1.641-31.011-1.42-48.569.012-.399.033-.826.129-1.119.511-.292.382-.384 1.07-.022 1.308-.412 12.698-.23 25.434.542 38.099.116 1.905.271 3.908 1.065 5.464 15.318.657 30.783 1.333 46.105.95 1.843-.047 4.605.306 4.827-2.13z" fill="#d66ec0"/><path d="m413.942 173.319c-1.043-.689-1.997.975-.975 1.668 1.509 1.022 2.545 2.672 2.476 4.538-.068 1.846-1.157 3.037-2.382 4.287.009.005.017.01.026.015-.661.698.097 1.891 1.066 1.4 4.865-2.468 3.749-9.292-.211-11.908z" fill="#ffd075"/><path d="m425.083 178.655c-.315-5.313-3.904-9.904-8.766-11.874-.388-.157-.876.106-1.075.438-.055.091-.09.138-.102.239-.009.08-.019.161-.028.242-.035.298.2.699.471.822 4.184 1.899 7.357 5.763 7.53 10.491.155 4.23-2.049 7.739-5.298 10.111-.212-.178-.513-.223-.744.046-.296.335-.583.677-.861 1.026-.696.852.15 1.93 1.149 1.489 4.889-2.158 8.037-7.753 7.724-13.03z" fill="#ffd075"/><path d="m423.417 161.483c-1.114-.579-2.103 1.102-.986 1.688 6.193 3.247 10.328 9.988 9.758 17.066-.281 3.487-1.737 6.874-3.935 9.582-.981 1.209-2.124 2.309-3.383 3.225-1.337.973-2.949 1.495-4.251 2.47-.561.42-.478 1.568.404 1.492 3.408-.293 6.828-3.506 8.857-6.057 2.29-2.879 3.81-6.345 4.23-10.011.912-7.974-3.665-15.805-10.694-19.455z" fill="#ffd075"/><path d="m464.594 425.011c.256-26.323-.535-51.843.68-78.14.099-2.14.181-4.375-.708-6.324s-3.511-3.202-5.653-3.16c-41.377.811-84.917.541-124.169.894-2.381.021-4.582 1.515-5.556 3.688s-.985 4.638-.978 7.019c.064 24.192.129 48.384.193 72.577.005 2.078-.026 4.315 1.117 6.05 2.559 3.883 87.875 2.303 128.312 1.72 3.56-.051 4.676-1.438 6.762-4.324z" fill="#ffbb39"/><path d="m393.969 370.301c-5.375-11.553-18.633-17.668-30.975-15.621-12.052 1.998-22.152 12.199-24.24 24.186-1.293 7.424-.086 15.277 3.811 21.781 3.654 6.097 9.757 10.886 17.046 11.224.397.019 6.604.085 9.354-.268 6.536-.838 12.462-3.231 17.556-7.439 4.609-3.809 8.149-9.151 9.519-14.998 1.485-6.337.664-12.986-2.071-18.865zm-9.222 27.115c-3.98 4.232-9.291 6.952-14.985 7.968-3.129.558-6.517.542-9.664.128-1.623-.214-3.186-.635-4.79-.925-2.822-1.357-5.253-3.76-6.944-6.415-2.853-4.48-4.119-9.791-3.853-15.076.504-10.023 7.538-18.818 16.956-21.677 9.163-2.781 20.139.694 25.512 9.014 5.468 8.467 4.688 19.626-2.232 26.983z" fill="#fff"/><path d="m393.969 370.301c-5.189-11.154-17.723-17.215-29.689-15.781.006 2.088.012 4.175.019 6.263 8.498-1.375 17.851 2.172 22.68 9.65 5.468 8.467 4.688 19.626-2.232 26.983-3.98 4.232-9.291 6.952-14.985 7.968-.9.161-1.823.261-2.754.331 1.039 1.932 2.213 3.81 3.458 5.647 5.941-.997 11.356-3.316 16.055-7.199 4.609-3.809 8.149-9.151 9.519-14.998 1.485-6.336.664-12.985-2.071-18.864z" fill="#eb9921"/><g fill="#fff"><path d="m453.928 367.351s-.002 0-.003 0c.128-.438.048-.886.056-1.324.008-.459.006-.917.011-1.376.01-.917.03-1.834.042-2.751.006-.516.014-1.032.01-1.548 0-.029-.078-.045-.164-.049-.033-.006-.071-.011-.121-.011-5.484-.039-10.969-.05-16.453-.065-5.457-.015-10.917-.009-16.375.004-3.091.007-6.185.006-9.275.035-.104.001-.169.017-.197.038-.078.004-.145.019-.146.046-.038 1.834-.003 3.669-.016 5.503-.002.251.002.502.004.752.002.264-.037.532.046.796.009.03.134.035.187.016.012.001.024.003.039.003 1.358.045 2.739.041 4.105.053 1.395.012 2.791.02 4.187.027 2.738.015 5.476.029 8.214.034 5.503.011 11.007.009 16.509-.018 3.113-.015 5.723-.047 8.836-.057.264.001.469-.007.504-.108z"/><path d="m444.488 388.31s-.001 0-.002 0c.099-.438.038-.886.044-1.324.006-.459.005-.917.009-1.376.008-.917.024-1.834.032-2.751.005-.516.011-1.032.008-1.548 0-.03-.061-.045-.128-.048-.026-.006-.055-.011-.094-.011-4.269-.039-8.54-.05-12.811-.065-4.249-.015-8.5-.008-12.749.004-2.407.007-4.816.006-7.222.035-.081.001-.132.017-.153.038-.061.004-.113.018-.114.046-.029 1.834-.002 3.669-.012 5.503-.001.251.001.502.003.752.001.264-.029.532.036.796.007.03.105.035.145.016.01.001.019.003.03.003 1.057.045 2.133.041 3.196.053 1.086.012 2.173.02 3.26.027 2.131.015 4.263.029 6.395.034 4.285.011 8.57.009 12.854-.018 2.424-.015 4.456-.047 6.879-.056.208-.002.368-.01.394-.11z"/><path d="m453.928 409.269s-.002 0-.003 0c.128-.438.048-.886.056-1.324.008-.459.006-.917.011-1.376.01-.917.03-1.834.042-2.751.006-.516.014-1.032.01-1.548 0-.03-.078-.045-.164-.049-.033-.006-.071-.011-.121-.011-5.484-.039-10.969-.05-16.453-.065-5.457-.015-10.917-.008-16.375.004-3.091.007-6.185.006-9.275.035-.104.001-.169.017-.197.037-.078.004-.145.019-.146.046-.038 1.834-.003 3.669-.016 5.504-.002.251.002.502.004.752.002.264-.037.532.046.796.009.03.134.035.187.016.012.001.024.003.039.003 1.358.045 2.739.042 4.105.053 1.395.012 2.791.02 4.187.027 2.738.015 5.476.029 8.214.034 5.503.011 11.007.009 16.509-.018 3.113-.015 5.723-.047 8.836-.056.264-.001.469-.009.504-.109z"/><path d="m304.056 140.28c.215-10.547.464-23.473.679-34.02-13.293-.499-26.73-.149-40.009.621-.082 11.043-.165 22.086-.247 33.129 13.343.316 26.267 1.274 39.577.27z"/></g><path d="m296.943 117.312c-.459-1.63-1.728-3.552-3.316-4.26-1.577-.702-3.276-1.163-5.119-.82-2.672.497-4.705 3.476-4.863 3.767-.618.876-.938 2.061-1.031 2.999-.131 1.322.151 2.665.785 3.816-.239.178-.475.361-.726.526-.687.45-4.893 3.845-5.518 4.321-.618.47-2.907 2.461-3.433 3.003-.551.568-1.107 1.132-1.655 1.703-.452.471-1.106 1.078-1.039 1.788.02.214.148.468.388.509.685.117 1.209-.283 1.73-.688.62-.482 3.055-2.394 3.634-2.902.598-.525 2.977-2.417 3.569-2.853.608-.446 3.091-2.344 3.718-2.872.295-.248.609-.459.909-.685.539.41 1.136.717 1.795.956.101.037 2.053.597 2.615.598.507.001 1.685-.339 2.18-.456.589-.14 2.919-1.719 3.64-2.439 1.532-1.533 2.338-3.873 1.737-6.011zm-3.398 3.496c-.315.419-.84.869-1.287 1.181-.608.425-1.297.672-2.003.908-1.334.446-2.404.191-3.492-.464-.505-.303-.99-.69-1.389-1.15-.572-1.356-.408-3.018.476-4.386.59-.913 1.504-1.674 2.543-2.012 1.055-.343 2.205-.276 3.165.15.309.137 2.131 1.764 2.276 2.11.526 1.265.515 2.591-.289 3.663z" fill="#a1b0ba"/><path d="m304.056 94.644c.215-10.547.464-23.473.679-34.02-13.293-.499-26.73-.149-40.009.621-.082 11.043-.165 22.086-.247 33.129 13.343.316 26.267 1.274 39.577.27z" fill="#fff"/><path d="m296.65 74.219c-.01.006-.426-.028-.624-.051l-4.788-.696c-.88-.158-1.758-.331-2.63-.531-.111-.302-.222-.604-.341-.904-.312-.785-.64-1.567-.988-2.337-.688-1.521-1.462-3.059-2.493-4.378.002-.02.009-.04.01-.059.004-.117-.151-.178-.231-.096-.015.016-.026.038-.041.055-.042.029-.077.069-.091.121-.399.511-2.996 6.275-3.596 7.465-.131.009-.263.019-.391.027-.42.025-6.708.874-8.245 1.296-.206.057-.127.333.066.326 1.095 1.103 2.2 2.194 3.313 3.279.551.538 2.457 2.397 2.457 2.397.082.08.167.152.25.229-.031.221-.046.447-.068.663-.034.332-.07.665-.109.996-.094.785-.206 1.568-.334 2.348-.241 1.458-.544 2.904-.902 4.337-.046.182.198.257.281.119.012-.002.022.003.034-.002 1.557-.674 7.219-3.793 7.456-3.925 2.489 1.28 4.973 2.568 7.47 3.831.028.014.052.002.078.006l.064.034-.005-.03c.17-.025.269-.229.154-.356-.177-1.437-.413-2.851-.72-4.268-.16-.738-.329-1.475-.508-2.209-.107-.438-.189-.946-.333-1.413.993-.879 1.982-1.758 2.926-2.692.542-.536 1.083-1.072 1.624-1.608.263-.26.526-.521.789-.781.268-.265.618-.526.802-.856.122-.22-.12-.451-.336-.337z" fill="#a1b0ba"/><path d="m443.367 93.123c-.244-.965-1.054-1.909-2.049-1.909-25.539.009-50.081.82-76.682.696-1.114-.005-2.28-.237-3.167.436-.887.674-1.159 1.619-1.184 2.733-.243 10.749-.3 21.415-.543 32.164-.506.681-.208 1.716.434 2.271.641.555 1.517.74 2.357.855 1.176.161 2.365.214 3.551.18-3.603 3.871-6.507 8.844-8.683 13.443 7.862-4.738 15.626-9.637 23.299-14.675 19.537-1.203 39.217-.374 58.805-.795.696-.015 1.47.218 1.966-.271.496-.49.664-.836.697-1.532.492-10.411-1.014-20.424 1.051-30.64.195-.976.392-1.991.148-2.956z" fill="#ffbb39"/><path d="m384.824 112.482c1.165-2.423.13-5.669-2.222-6.971s-5.652-.456-7.087 1.817c-4.055 6.423 6.039 11.955 9.309 5.154z" fill="#fff"/><path d="m405.715 112.482c1.165-2.423.13-5.669-2.222-6.971s-5.652-.456-7.087 1.817c-4.055 6.423 6.039 11.955 9.309 5.154z" fill="#fff"/><path d="m426.606 112.482c1.165-2.423.13-5.669-2.222-6.971s-5.652-.456-7.087 1.817c-4.055 6.423 6.039 11.955 9.309 5.154z" fill="#fff"/><path d="m43.774 290.538c.937 4.108 2.156 8.151 3.645 12.092 1.515-.45 2.999-.895 4.514-1.345-.489-2.416-.706-4.978-1.196-7.394 4.507-2.718 6.442-9.453 4.139-14.186s-8.454-7.171-13.374-5.302-7.9 7.777-6.479 12.845c1.796-.672 3.86-1.216 5.656-1.888-.397-1.77-.164-3.754 1.126-5.03s3.29-1.799 5.026-1.272 3.12 2.102 3.372 3.899c.242 1.725-.523 3.486-1.727 4.745s-3.062 2.247-4.702 2.836z" fill="#a1b0ba"/><path d="m48.887 305.43c-.331.481-.456 1.085-.415 1.668.091 1.306 1.056 2.514 2.316 2.868 1.261.354 2.726-.187 3.434-1.289s.581-2.677-.31-3.636c-.633-.681-1.617-1-2.533-.88-.804.104-2.024.59-2.492 1.269z" fill="#a1b0ba"/><path d="m143.067 207.632c-.208 2.557-.592 5.1-1.148 7.604-.952-.14-1.885-.279-2.837-.419.085-1.499-.006-3.062.079-4.56-2.952-1.247-4.702-5.138-3.725-8.191.977-3.052 4.473-5.056 7.601-4.356s5.436 4.002 5.019 7.18c-1.141-.249-2.432-.398-3.573-.647.086-1.101-.227-2.277-1.115-2.934s-2.139-.799-3.14-.331-1.698 1.537-1.694 2.642c.004 1.061.618 2.056 1.452 2.71.836.655 2.042 1.089 3.081 1.302z" fill="#a1b0ba"/><path d="m141.278 217.051c.241.261.369.615.395.969.058.795-.418 1.607-1.147 1.929-.729.323-1.659.124-2.181-.479s-.583-1.563-.129-2.218c.323-.466.888-.743 1.45-.75.494-.007 1.271.18 1.612.549z" fill="#a1b0ba"/></svg>