<svg enable-background="new 0 0 3710 3710" viewBox="0 0 3710 3710" xmlns="http://www.w3.org/2000/svg" xmlns:xlink="http://www.w3.org/1999/xlink"><linearGradient id="a"><stop offset="0" stop-color="#444b8c"/><stop offset=".9964" stop-color="#26264f"/></linearGradient><linearGradient id="b" gradientUnits="userSpaceOnUse" x1="2080.5098" x2="2082.6655" xlink:href="#a" y1="2803.053" y2="2943.1738"/><linearGradient id="c" gradientUnits="userSpaceOnUse" x1="2056.1822" x2="2279.9572" xlink:href="#a" y1="3081.1194" y2="2403.5781"/><linearGradient id="d"><stop offset="0" stop-color="#ff9085"/><stop offset="1" stop-color="#fb6fbb"/></linearGradient><linearGradient id="e" gradientUnits="userSpaceOnUse" x1="1064.197" x2="3144.0677" xlink:href="#d" y1="3016.2915" y2="3016.2915"/><linearGradient id="f" gradientTransform="matrix(.9927 .1207 -.1207 .9927 1466.2639 34.9268)" gradientUnits="userSpaceOnUse" x1="295.9141" x2="329.7579" xlink:href="#d" y1="3028.1016" y2="3028.1016"/><linearGradient id="g" gradientUnits="userSpaceOnUse" x1="2033.799" x2="2036.1014" xlink:href="#a" y1="3147.2361" y2="3206.6362"/><linearGradient id="h" gradientUnits="userSpaceOnUse" x1="2185.4641" x2="2187.7664" xlink:href="#a" y1="3141.3577" y2="3200.7568"/><linearGradient id="i" gradientUnits="userSpaceOnUse" x1="2375.3386" x2="2377.6409" xlink:href="#a" y1="3133.9983" y2="3193.3989"/><mask id="j" height="1779.325" maskUnits="userSpaceOnUse" width="1908.06" x="1258.061" y="1236.284"><path d="m1258.061 1521.818 848.183 1386.813 7.749 12.652 10.286 16.836 18.036 29.488 13.097 21.395c0 14.264 48.209 25.853 108.796 26.573 1.954.035 3.909.035 5.898.035 63.364 0 114.692-11.899 114.692-26.608l12.001-21.773 24.037-43.58 8.193-14.88 10.286-18.653 50.473-91.583 86.954-157.692 97.962-177.713 9.771-17.762 108.248-196.401 68.816-124.81 304.581-552.516c-70.496-54.004-235.01-170.926-474.82-251.365-35.626-11.968-72.896-23.111-111.813-33.123-8.984-2.332-18.07-4.594-27.26-6.789-6.891-1.645-13.817-3.258-20.778-4.8-5.485-1.269-11.04-2.469-16.595-3.67-.034 0-.034 0-.069 0-82.943-17.76-172.434-30.071-267.927-34.115-11.485-.514-23.076-.892-34.767-1.132-182.344-3.841-344.767 23.453-482.845 63.433-4.663 1.303-9.292 2.674-13.852 4.047-1.336.411-2.674.789-3.978 1.199-14.708 4.424-29.145 9.019-43.27 13.715-38.643 12.825-75.09 26.505-109.241 40.563-144.08 59.283-247.252 125.391-300.844 162.216z" fill="url(#k)"/></mask><linearGradient id="k" gradientTransform="matrix(-1 0 0 1 5842.0527 0)" gradientUnits="userSpaceOnUse" x1="3687.5181" x2="3627.7908" y1="2908.8979" y2="1495.3463"><stop offset="0" stop-color="#fff"/><stop offset="1"/></linearGradient><linearGradient id="l"><stop offset=".0036" stop-color="#e38ddd"/><stop offset="1" stop-color="#9571f6"/></linearGradient><linearGradient id="m" gradientTransform="matrix(-1 0 0 1 5842.0527 0)" gradientUnits="userSpaceOnUse" x1="2675.9319" x2="4583.9917" xlink:href="#l" y1="2125.947" y2="2125.947"/><clipPath id="n"><ellipse cx="2250.647" cy="1439.56" rx="858.279" ry="858.279" transform="matrix(.7071 -.7071 .7071 .7071 -358.7236 2013.0853)"/></clipPath><linearGradient id="o"><stop offset="0" stop-color="#ffc444"/><stop offset=".9964" stop-color="#f36f56"/></linearGradient><linearGradient id="p" gradientUnits="userSpaceOnUse" x1="2480.502" x2="1868.1886" xlink:href="#o" y1="1990.113" y2="520.5633"/><linearGradient id="q" gradientUnits="userSpaceOnUse" x1="1384.1689" x2="3117.1255" xlink:href="#o" y1="1439.5603" y2="1439.5603"/><linearGradient id="r"><stop offset="0" stop-color="#aa80f9"/><stop offset=".9964" stop-color="#6165d7"/></linearGradient><linearGradient id="s" gradientTransform="matrix(-1 0 0 1 5449.73 0)" gradientUnits="userSpaceOnUse" x1="4259.894" x2="4275.228" xlink:href="#r" y1="476.8912" y2="4064.2761"/><linearGradient id="t" gradientTransform="matrix(-1 0 0 1 5449.73 0)" gradientUnits="userSpaceOnUse" x1="4267.0332" x2="4269.166" xlink:href="#a" y1="1947.4846" y2="2446.5342"/><linearGradient id="u" gradientTransform="matrix(-1 0 0 1 5449.73 0)" gradientUnits="userSpaceOnUse" x1="4317.2983" x2="4332.5923" xlink:href="#r" y1="482.65" y2="4060.7236"/><linearGradient id="v" gradientTransform="matrix(-1 0 0 1 5449.73 0)" gradientUnits="userSpaceOnUse" x1="3633.2803" x2="3957.4287" xlink:href="#a" y1="1676.677" y2="1676.677"/><linearGradient id="w" gradientTransform="matrix(-1 0 0 1 5449.73 0)" gradientUnits="userSpaceOnUse" x1="3678.7268" x2="4818.9268" xlink:href="#r" y1="1723.3983" y2="1723.3983"/><linearGradient id="x" gradientUnits="userSpaceOnUse" x1="989.1234" x2="1695.8715" xlink:href="#a" y1="1769.9406" y2="1769.9406"/><linearGradient id="y" gradientTransform="matrix(-1 0 0 1 5449.73 0)" gradientUnits="userSpaceOnUse" x1="4446.8174" x2="4470.8408" xlink:href="#r" y1="-1434.5487" y2="4185.8896"/><linearGradient id="z" gradientTransform="matrix(-1 0 0 1 5449.73 0)" gradientUnits="userSpaceOnUse" x1="4579.0513" x2="4903.2002" xlink:href="#a" y1="1758.0085" y2="1758.0085"/><linearGradient id="A" gradientUnits="userSpaceOnUse" x1="2692.1362" x2="2706.8669" xlink:href="#o" y1="2398.2341" y2="2428.5254"/><linearGradient id="B" gradientUnits="userSpaceOnUse" x1="2654.6334" x2="2654.6334" xlink:href="#o" y1="3169.6179" y2="3074.5889"/><linearGradient id="C" gradientUnits="userSpaceOnUse" x1="2364.9838" x2="2364.9838" xlink:href="#o" y1="3196.7" y2="3082.1743"/><linearGradient id="D"><stop offset="0" stop-color="#311944"/><stop offset="1" stop-color="#893976"/></linearGradient><linearGradient id="E" gradientUnits="userSpaceOnUse" x1="2300.914" x2="2675.6007" xlink:href="#D" y1="2746.8257" y2="2746.8257"/><linearGradient id="F" gradientUnits="userSpaceOnUse" x1="2289.006" x2="2558.947" xlink:href="#D" y1="2467.5173" y2="2920.9141"/><linearGradient id="G" gradientUnits="userSpaceOnUse" x1="2395.2745" x2="2665.2155" xlink:href="#D" y1="2404.2478" y2="2857.6445"/><linearGradient id="H" gradientTransform="matrix(-.9906 -.1367 .1367 -.9906 2791.3203 -1269.0822)" gradientUnits="userSpaceOnUse" x1="-771.6347" x2="-946.494" xlink:href="#l" y1="-4619.312" y2="-5056.4609"/><linearGradient id="I" gradientUnits="userSpaceOnUse" x1="2620.9832" x2="2438.1133" xlink:href="#l" y1="2693.9287" y2="2081.3164"/><linearGradient id="J" gradientUnits="userSpaceOnUse" x1="2464.6727" x2="2520.0047" xlink:href="#l" y1="1906.0093" y2="1993.9554"/><linearGradient id="K" gradientUnits="userSpaceOnUse" x1="2491.8716" x2="3001.5005" xlink:href="#a" y1="1472.3625" y2="2282.3828"/><linearGradient id="L" gradientUnits="userSpaceOnUse" x1="2519.8757" x2="2337.0056" xlink:href="#l" y1="2724.1106" y2="2111.4973"/><linearGradient id="M" gradientUnits="userSpaceOnUse" x1="2296.7607" x2="2586.2964" xlink:href="#d" y1="2000.8402" y2="2596.2236"/><g fill="#97a6b7"><path d="m1886.08 1321.881-79.274.136c-5.461-52.365-18.051-102.631-36.783-149.854l67.026-38.871c18.318-10.623 24.582-34.583 14.023-53.571l-28.166-50.651c-10.623-19.104-34.215-26.121-52.725-15.615l-66.193 37.568c-30.807-43.171-67.575-82.095-109.22-115.573l38.072-65.399c10.924-18.765 4.443-43.46-14.508-55.219l-50.671-31.438c-19.156-11.885-43.733-6.267-54.861 12.608l-38.158 64.73c-49.03-22.838-102.011-39.312-157.894-48.15v-76.762c0-22.646-18.628-41.853-41.68-42.905l-61.694-2.815c-23.347-1.065-42.333 16.627-42.333 39.522v77.605c-57.605 4.8-113.136 17.749-165.34 37.786l-41.182-70.159c-12.102-20.617-38.981-28.611-60.075-17.792l-56.418 28.935c-21.335 10.942-28.66 36.691-16.321 57.449l42.67 71.778c-46.702 33.017-88.452 72.543-123.815 117.361l-77.18-43.667c-21.882-12.38-49.962-5.962-62.678 14.405l-33.929 54.343c-12.801 20.503-5.201 47.109 16.932 59.357l79.862 44.194c-22.144 50.998-37.102 105.665-43.61 162.824l-95.797.165c-25.782.044-46.752 19.586-46.752 43.647v63.988c0 24.061 20.97 43.305 46.752 42.984l98.341-1.224c8.302 55.822 24.701 108.964 48.004 158.301l-86.8 49.263c-22.133 12.562-29.733 39.275-16.932 59.596l33.929 53.863c12.716 20.186 40.797 26.206 62.678 13.516l87.793-50.914c35.078 41.489 75.876 77.943 121.147 108.284l-50.615 85.86c-12.339 20.932-5.014 46.577 16.321 57.217l56.418 28.136c21.095 10.52 47.974 2.145 60.075-18.643l50.198-86.23c49.568 17.483 102.025 28.578 156.325 32.409v96.127c0 22.894 18.986 40.318 42.333 38.922l61.694-3.688c23.052-1.378 41.68-20.85 41.68-43.495v-95.083c52.701-9.008 102.821-24.775 149.479-46.22l46.573 78.345c11.127 18.718 35.704 23.988 54.861 11.831l50.671-32.156c18.951-12.027 25.432-36.814 14.508-55.424l-45.211-77.024c40.469-32.026 76.497-69.077 107.146-110.055l75.407 41.729c18.51 10.243 42.102 2.893 52.725-16.362l28.166-51.051c10.559-19.138 4.295-43.008-14.023-53.372l-72.92-41.255c19.748-46.328 33.569-95.645 40.542-147.016l81.407-1.013c20.985-.261 37.945-17.989 37.945-39.597v-57.465c0-21.604-16.96-39.092-37.945-39.056zm-641.786 473.055c-234.571 8.704-430.871-173.348-430.871-406.906s196.301-418.119 430.871-412.413c226.6 5.512 404.721 187.69 404.721 407.072 0 219.384-178.121 403.838-404.721 412.247z"/><path d="m981.819 754.054-56.461-1.947-19.47 50.62z"/><path d="m1541.681 777.417 65.106.649v48.025z"/><path d="m1789.8 1009.077 64.898 2.622-16.225 36.343z"/><path d="m1891.689 1322.56 65.547 5.192-21.416 31.8z"/><path d="m1782.661 1772.304 63.6 9.085 7.787-51.918z"/><path d="m1539.293 2006.586 57.11 10.383 4.543-42.183z"/><path d="m1253.742 2107.826-51.27-9.085 44.131-65.547z"/><path d="m975.978 2052.663-59.706-12.33 46.077-55.813z"/><path d="m640.455 983.144 62.303 1.947-24.662 45.428z"/><path d="m516.5 1471.826 57.11 8.437-4.542-46.727z"/><path d="m639.157 1813.839 55.813 9.085 4.543-36.992z"/></g><path d="m1950.128 1327.028-79.931.137c-5.506-52.791-18.2-103.467-37.088-151.076l67.582-39.187c18.469-10.71 24.785-34.865 14.139-54.008l-28.399-51.064c-10.711-19.26-34.498-26.333-53.162-15.742l-66.741 37.874c-31.063-43.522-68.135-82.763-110.126-116.515l38.387-65.932c11.015-18.918 4.48-43.814-14.628-55.669l-51.091-31.695c-19.315-11.982-44.095-6.318-55.315 12.711l-38.475 65.258c-49.436-23.024-102.857-39.633-159.203-48.542v-77.387c0-22.83-18.782-42.194-42.025-43.254l-62.205-2.838c-23.54-1.074-42.684 16.763-42.684 39.844v78.237c-58.083 4.839-114.074 17.894-166.71 38.094l-41.523-70.731c-12.202-20.785-39.304-28.844-60.573-17.937l-56.886 29.171c-21.512 11.031-28.898 36.99-16.456 57.916l43.023 72.363c-47.089 33.286-89.185 73.134-124.841 118.317l-77.82-44.022c-22.063-12.481-50.376-6.01-63.198 14.522l-34.211 54.785c-12.907 20.67-5.244 47.493 17.072 59.841l80.524 44.555c-22.328 51.413-37.41 106.526-43.972 164.151l-96.59.166c-25.996.045-47.14 19.745-47.14 44.003v64.509c0 24.257 21.144 43.658 47.14 43.334l99.156-1.234c8.371 56.277 24.905 109.852 48.402 159.591l-87.52 49.665c-22.317 12.664-29.979 39.595-17.072 60.082l34.211 54.302c12.822 20.351 41.135 26.42 63.198 13.627l88.521-51.329c35.369 41.827 76.505 78.578 122.152 109.167l-51.035 86.56c-12.442 21.102-5.056 46.956 16.456 57.683l56.885 28.366c21.27 10.606 48.371 2.163 60.574-18.795l50.614-86.932c49.979 17.626 102.871 28.811 157.62 32.673v96.911c0 23.08 19.144 40.646 42.684 39.239l62.205-3.719c23.243-1.39 42.025-21.02 42.025-43.849v-95.858c53.138-9.082 103.673-24.977 150.718-46.596l46.96 78.983c11.22 18.871 36 24.183 55.315 11.928l51.091-32.418c19.108-12.125 25.643-37.114 14.628-55.876l-45.586-77.651c40.804-32.287 77.131-69.64 108.035-110.952l76.031 42.069c18.664 10.327 42.451 2.917 53.162-16.495l28.399-51.467c10.646-19.294 4.331-43.358-14.139-53.807l-73.524-41.591c19.912-46.705 33.847-96.424 40.878-148.214l82.082-1.021c21.158-.263 38.26-18.136 38.26-39.92v-57.934c0-21.782-17.102-39.413-38.26-39.377zm-647.106 476.91c-236.515 8.775-434.443-174.76-434.443-410.221s197.928-421.525 434.443-415.772c228.478 5.557 408.075 189.219 408.075 410.389 0 221.169-179.597 407.126-408.075 415.604z" fill="#d8dee8"/><path d="m2146.187 2417.691-42.647-7.931c2.35-28.713.655-57.017-4.652-84.305l39.971-14.137c10.924-3.864 16.712-16.116 12.95-27.394l-10.034-30.084c-3.784-11.347-15.763-17.502-26.779-13.721l-39.391 13.521c-12.209-26.327-28.053-50.973-47.069-73.182l27.078-31.328c7.77-8.989 6.778-22.924-2.228-31.161l-24.076-22.024c-9.102-8.325-22.887-7.786-30.777 1.242l-27.057 30.959c-24.062-17.232-50.892-31.442-80.053-41.836l7.75-41.282c2.286-12.179-5.793-24.389-18.083-27.282l-32.895-7.743c-12.448-2.93-24.445 4.668-26.757 16.98l-7.836 41.736c-31.464-3.235-62.636-1.878-92.734 3.627l-15.064-41.889c-4.427-12.31-18.075-19.322-30.512-15.634l-33.263 9.865c-12.579 3.731-19.118 16.839-14.577 29.248l15.701 42.91c-28.45 13.041-54.893 30.083-78.436 50.615l-37.099-31.276c-10.518-8.868-26.267-8.251-35.162 1.418l-23.734 25.8c-8.954 9.734-7.554 24.81 3.113 33.632l38.487 31.831c-17.058 25.191-30.622 53.08-39.893 83.163l-51.536-9.583c-13.87-2.579-27.12 5.813-29.549 18.753l-6.46 34.412c-2.429 12.94 6.905 25.406 20.803 27.837l53.011 9.271c-1.171 30.859 2.283 61.094 9.833 89.98l-51.655 17.73c-13.171 4.521-19.956 18.12-15.123 30.341l12.809 32.392c4.801 12.14 19.294 18.213 32.343 13.598l52.355-18.518c14.676 25.854 32.936 49.578 54.219 70.467l-35.889 41.065c-8.749 10.011-7.399 24.542 3 32.419l27.501 20.828c10.282 7.787 25.583 5.997 34.19-3.961l35.702-41.305c24.892 14.407 51.983 25.67 80.798 33.212l-9.705 51.697c-2.312 12.312 6.14 23.6 18.837 25.206l33.551 4.245c12.536 1.586 24.52-7.004 26.807-19.183l9.6-51.135c29.252.477 57.798-2.943 85.056-9.765l17.137 46.836c4.095 11.19 16.78 16.506 28.309 11.902l30.497-12.177c11.406-4.554 17.394-17.231 13.398-28.342l-16.538-45.988c24.998-13.138 48.114-29.426 68.734-48.369l36.34 30.055c8.921 7.378 22.35 5.807 30.007-3.476l20.302-24.611c7.611-9.226 6.652-22.696-2.153-30.119l-35.05-29.549c15.297-22.921 27.71-48.048 36.646-74.971l43.883 7.675c11.312 1.978 22.223-5.844 24.405-17.464l5.802-30.905c2.185-11.621-5.17-22.738-16.459-24.838zm-392.912 189.609c-127.03-19.002-214.219-136.728-190.638-262.335 23.581-125.606 147.784-205.043 273.359-178.291 121.308 25.843 198.707 141.801 176.557 259.784-22.149 117.984-136.565 199.198-259.278 180.842z" fill="#97a6b7"/><path d="m1717.209 2021.018-30.167-6.747-15.582 25.257z" fill="#97a6b7"/><path d="m2015.941 2090.109 34.949 6.922-4.849 25.828z" fill="#97a6b7"/><path d="m2125.989 2239.746 34.637 7.962-12.395 17.907z" fill="#97a6b7"/><path d="m2149.134 2418.623 34.727 9.41-14.728 14.94z" fill="#97a6b7"/><path d="m2045.091 2649.485 33.287 11.307 9.43-27.135z" fill="#97a6b7"/><path d="m1890.555 2750.909 29.666 11.35 6.701-22.227z" fill="#97a6b7"/><path d="m1726.766 2776.525-26.656-10.063 30.351-30.795z" fill="#97a6b7"/><path d="m1582.955 2718.814-30.865-12.659 30.416-25.364z" fill="#97a6b7"/><path d="m1510.496 2109.756 33.309 7.338-17.849 21.941z" fill="#97a6b7"/><path d="m1394.494 2360.052 29.862 10.303 2.274-25.588z" fill="#97a6b7"/><path d="m1425.928 2556.369 29.098 10.521 6.178-19.436z" fill="#97a6b7"/><path d="m2180.111 2426.926-43-7.996c2.369-28.947.659-57.482-4.692-84.992l40.302-14.251c11.014-3.895 16.849-16.248 13.056-27.618l-10.117-30.329c-3.816-11.439-15.894-17.645-27.001-13.833l-39.717 13.63c-12.312-26.542-28.287-51.389-47.461-73.78l27.301-31.582c7.834-9.062 6.833-23.111-2.246-31.415l-24.276-22.203c-9.178-8.394-23.077-7.85-31.032 1.251l-27.28 31.211c-24.262-17.373-51.315-31.699-80.718-42.179l7.813-41.618c2.305-12.278-5.841-24.588-18.234-27.505l-33.167-7.807c-12.552-2.954-24.648 4.705-26.978 17.118l-7.899 42.076c-31.725-3.262-63.155-1.895-93.502 3.655l-15.19-42.231c-4.464-12.41-18.225-19.48-30.765-15.762l-33.538 9.945c-12.683 3.761-19.276 16.975-14.697 29.485l15.831 43.26c-28.685 13.147-55.347 30.327-79.085 51.026l-37.406-31.532c-10.605-8.94-26.485-8.319-35.453 1.429l-23.93 26.009c-9.028 9.813-7.615 25.012 3.14 33.906l38.807 32.091c-17.198 25.395-30.874 53.512-40.221 83.84l-51.962-9.663c-13.985-2.601-27.345 5.859-29.794 18.905l-6.513 34.693c-2.449 13.045 6.963 25.614 20.976 28.064l53.45 9.348c-1.18 31.111 2.303 61.593 9.917 90.714l-52.082 17.873c-13.281 4.558-20.121 18.267-15.248 30.588l12.916 32.657c4.841 12.239 19.454 18.362 32.611 13.709l52.788-18.667c14.798 26.065 33.21 49.983 54.671 71.042l-36.186 41.399c-8.822 10.093-7.46 24.742 3.026 32.683l27.729 20.998c10.368 7.851 25.796 6.047 34.474-3.992l35.997-41.641c25.099 14.525 52.415 25.881 81.469 33.485l-9.785 52.118c-2.33 12.413 6.192 23.792 18.994 25.412l33.829 4.281c12.64 1.6 24.723-7.061 27.028-19.338l9.678-51.552c29.494.481 58.277-2.965 85.76-9.842l17.28 47.218c4.129 11.281 16.919 16.64 28.544 12l30.75-12.276c11.5-4.591 17.538-17.371 13.508-28.573l-16.676-46.363c25.204-13.244 48.512-29.664 69.303-48.762l36.641 30.301c8.995 7.438 22.536 5.855 30.256-3.503l20.469-24.811c7.674-9.301 6.707-22.881-2.171-30.365l-35.342-29.791c15.424-23.107 27.938-48.439 36.948-75.581l44.246 7.738c11.406 1.995 22.407-5.89 24.606-17.606l5.849-31.156c2.2-11.718-5.216-22.927-16.599-25.043zm-396.161 191.145c-128.083-19.16-215.997-137.848-192.224-264.478 23.773-126.629 149.004-206.71 275.62-179.737 122.313 26.057 200.357 142.962 178.026 261.906-22.33 118.944-137.692 200.818-261.422 182.309z" fill="#d8dee8"/><path d="m943.721 3019.628 1422.223-98.215c1.711-.161 3.432-.167 5.144-.017l846.989 38.372c20.26 1.842 19.339 54.893-3.657 57.788l-1330.835 178.2c-5.448.673-10.958.657-16.402-.047l-920.843-129.391c-12.288-2.14-16.778-45.654-2.619-46.69z" fill="url(#b)"/><path d="m946.529 3018.062 1419.415-133.945c1.711-.161 3.432-.167 5.144-.017l842.878 74c15.477 1.359 15.872 23.844.454 25.746l-1330.835 164.23c-5.448.673-10.958.657-16.402-.047l-920.843-119.007c-6.523-.842-6.359-10.342.189-10.96z" fill="url(#c)"/><path d="m1897.657 3132.037c-1.969 0-3.957-.128-5.91-.38l-825.333-106.663c-3.008-.389-2.932-4.769.087-5.054l1267.397-119.353c.283-.027.568-.041.849-.041.261 0 .521.011.782.034l805.684 70.734c3.739.328 3.835 5.76.11 6.22l-1238.018 154.156c-1.866.23-3.766.347-5.648.347z" fill="url(#e)"/><path d="m1428.123 3080.725c-.299 2.461-8.063 3.542-17.34 2.414-9.278-1.128-16.556-4.037-16.257-6.499.299-2.461 8.063-3.543 17.341-2.415 9.277 1.129 16.555 4.038 16.256 6.5z" fill="url(#f)"/><path d="m2099.286 3156.713-127.752 16.783c-9.333 1.227-16.975-3.336-16.975-10.202 0-6.866 7.642-13.325 16.975-14.416l127.752-14.924c7.893-.922 14.233 3.386 14.233 9.614 0 6.226-6.34 12.108-14.233 13.145z" fill="url(#g)"/><path d="m2238.831 3138.38-105.204 13.821c-7.626 1.002-13.865-3.207-13.865-9.409 0-6.202 6.238-11.959 13.865-12.85l105.204-12.29c6.55-.765 11.816 3.221 11.816 8.898 0 5.676-5.266 10.97-11.816 11.83z" fill="url(#h)"/><path d="m2415.153 3115.216-80.039 10.515c-5.746.755-10.44-2.989-10.44-8.368 0-5.379 4.694-10.288 10.44-10.959l80.039-9.35c5.032-.588 9.081 2.976 9.081 7.955 0 4.978-4.049 9.547-9.081 10.207z" fill="url(#i)"/><path d="m2563.283 2966.754c-123.684 22.02-205.828 66.858-383.319 70.448-153.753 3.109-154.892-32.32-333.591-43.512-234.11-14.663-295.131 42.201-534.574 37.296-62.438-1.279-144.162-6.915-240.856-24.665l-124.414 11.741c-6.548.618-6.712 10.118-.189 10.961l920.843 119.007c5.444.704 10.954.719 16.402.047l1126.443-139.008c-193.283-64.446-341.283-61.091-446.745-42.315z" fill="#fff" opacity=".6"/><path d="m2270.119 3030.728c-80.928 0-162.851-14.328-162.851-41.711 0-27.385 81.923-41.713 162.851-41.713s162.851 14.328 162.851 41.713c0 27.383-81.923 41.711-162.851 41.711zm0-73.138c-108.664 0-152.565 22.178-152.565 31.427 0 9.248 43.901 31.425 152.565 31.425s152.565-22.177 152.565-31.425c0-9.249-43.902-31.427-152.565-31.427z" fill="#fff"/><ellipse cx="2270.118" cy="2989.015" fill="#fff" opacity=".6" rx="71.685" ry="16.622"/><path d="m1258.061 1521.818 848.183 1386.813 7.749 12.652 10.286 16.836 18.036 29.488 13.097 21.395c0 14.264 48.209 25.853 108.796 26.573 1.954.035 3.909.035 5.898.035 63.364 0 114.692-11.899 114.692-26.608l12.001-21.773 24.037-43.58 8.193-14.88 10.286-18.653 50.473-91.583 86.954-157.692 97.962-177.713 9.771-17.762 108.248-196.401 68.816-124.81 304.581-552.516c-70.496-54.004-235.01-170.926-474.82-251.365-35.626-11.968-72.896-23.111-111.813-33.123-8.984-2.332-18.07-4.594-27.26-6.789-6.891-1.645-13.817-3.258-20.778-4.8-5.485-1.269-11.04-2.469-16.595-3.67-.034 0-.034 0-.069 0-82.943-17.76-172.434-30.071-267.927-34.115-11.485-.514-23.076-.892-34.767-1.132-182.344-3.841-344.767 23.453-482.845 63.433-4.663 1.303-9.292 2.674-13.852 4.047-1.336.411-2.674.789-3.978 1.199-14.708 4.424-29.145 9.019-43.27 13.715-38.643 12.825-75.09 26.505-109.241 40.563-144.08 59.283-247.252 125.391-300.844 162.216z" fill="url(#m)" mask="url(#j)" opacity=".29"/><g clip-path="url(#n)"><path d="m3119.436 1440.292c0 183.919-57.762 354.532-155.701 494.968-.386.578-1.766 1.131-1.766 1.709v.024c-153.673 225.165-416.994 371.046-712.377 371.046-24.159 0-47.3-1.128-70.955-4.398-.024 0-.024 0-.024 0-.096 0-.145 1.438-.241 1.438-11.646-.963-23.196-1.411-34.7-2.831-4.09-.481-8.181-.645-12.248-1.223-3.61-.481-7.196-.803-10.78-1.357-3.129-.457-6.233-.847-9.313-1.353-.698-.12-1.396-.195-2.094-.291-7.581-1.251-15.137-2.552-22.668-3.996-.049 0-.072-.013-.121-.013-401.6-76.715-705.046-429.774-705.046-853.731 0-89.637 13.022-176.12 38.242-257.48 3.946-12.754 8.862-25.36 12.132-37.85v-.024c9.809-20.815 16.383-41.245 25.407-61.29 3.633-8.013 7.65-15.979 11.477-23.871 21.152-43.363 45.937-84.705 73.731-123.665 2.527-3.537 5.149-7.05 7.724-10.563 10.299-14.006 21.044-27.674 32.185-41.029 16.676-20.021 34.237-39.297 52.621-57.729 47.863-48.031 101.317-90.505 159.287-126.335 17.928-11.094 36.317-21.561 55.086-31.331 45.457-23.727 93.25-43.532 142.99-58.98 81.625-25.388 168.4-39.056 258.375-39.056 206.925 0 396.957 72.288 546.201 192.992 109.78 88.796 199.062 203.748 255.227 335.401 12.562 29.406 21.049 59.631 34.129 90.577v.025c0 .143-1.497.24-1.449.384 23.725 79.123 34.669 162.986 34.669 249.832z" fill="url(#p)"/><g fill="#fff"><path d="m2178.612 2306.565v-.023h.072l-.048.023c-.024 0-.024 0-.024 0z"/><path d="m2440.017 1733.341c-18.65 26.278-76.354 60.015-37.203 126.286 38.816 66.104-2.694 78.496-29.405 72.312-26.831-6.113-110.237-9.529-96.328 28.372 13.861 37.948 37.756 52.17 7.195 66.824-30.537 14.583-43.459 52.676-74.719 105.111-31.042 52.531-104.823 7.099-82.972 59.75 21.802 52.676 38.815 47.574 36.77 84.271-.482 10.083 6.208 20.431 15.256 30.273-11.647-.964-23.343-2.142-34.941-3.562-4.09-.482-8.181-1.01-12.248-1.588-3.61-.481-7.196-.987-10.78-1.541-3.129-.458-6.233-.938-9.313-1.444-.698-.121-.518-.241-1.216-.337-7.459-1.251-11.332-2.6-21.14-4.019v-.024c-6.54-6.208-2.443-12.947-1.456-20.213 9.746-67.764-83.747-114.328-99.414-161.805-15.4-47.358-.195-75.609-3.756-114.857-3.657-39.176 9.155-91.129-13.392-124.145-22.548-32.895-113.444-43.916-130.746-110.308-17.422-66.248 23.097-165.463 38.835-182.356 15.545-16.892-75.261-93.752-118.479-96.207-43.411-2.647-26.044-90.047-99.439-76.739-73.539 12.897-205.652-28.131-178.364-72.264 22.523-36.36 60.33-116.565-63.094-152.324 3.947-12.753 8.836-25.363 12.106-37.852v-.024c9.809-20.815 16.383-41.245 25.407-61.29 3.633-8.013 7.65-15.979 11.477-23.871 21.177-43.363 45.961-84.705 73.731-123.665 2.527-3.537 5.149-7.05 7.724-10.563 10.323-14.006 21.068-27.698 32.185-41.029 16.676-20.021 34.237-39.297 52.621-57.729 47.863-48.031 101.317-90.505 159.287-126.335 24.449 17.133 52.367 27.697 76.479 14.679 59.126-33.088 20.144-38.165-4.063-39.393-6.306-.313-12.417-2.815-17.325-6.617 45.457-23.727 93.248-43.532 142.988-58.98-3.682 33.376-49.042 86.991-15.666 80.445 38.839-7.387 54.697-112.33 83.213-77.461 28.925 35.013-31.645 80.903 25.242 54.312 56.96-26.326 64.564-85.09 128.044-56.502 63.793 28.949 57.971 63.216 75.778 59.823 17.736-3.345 75.103 35.205 40.403 66.922-35.013 31.812-67.114-8.711-119.598-20.936-52.507-12.08-51.232 30.874-75.391 40.693-24.57 9.481-143.084-47.791-172.177 3.97-29.406 51.352-41.919 87.183 1.732 85.86 43.603-1.227 46.419-12.513 43.002 19.733-3.489 32.27 4.452 56.429 43.964 26.085 39.393-30.297 30.562-59.847 61.364-45.408 30.825 14.486 34.458 1.372 67.234-22.427 32.751-23.799 75.85-26.278 87.136 27.119 11.309 53.422-8.014 65.406-65.623 68.101-57.633 2.791-64.154-15.377-82.515 32.798-18.265 48.2-94.498 110.092-161.419 135.601-66.802 25.556-92.983 63.311-91.442 114.255 1.588 51.039-23.535 104.87-40.307 62.807-16.845-42.185-64.058-113.221-112.234-65.742-48.272 47.574-132.278 131.677-39.441 147.054 92.647 15.666 44.302-71.133 91.13-53.782 46.756 17.47-29.623 55.732 1.637 69.544 31.306 13.933 44.422 7.412 44.181 50.077-.241 42.641 10.371 84.055 48.369 65.959 37.972-18.024 86.749-101.621 141.687-52.17 55.009 49.572 51.111 43.122 79.964 28.684 28.829-14.414 47.19 28.805 59.005 48.489 11.814 19.66 58.162-.41 95.727 58.162 37.538 58.571 52.266 69.015 95.076 47.935 42.833-21.057 60.256-5.414 71.42 24.16 11.118 29.574 37.492.674 50.198 39.754 12.633 39.051 6.568 32.987-11.961 59.289z"/><path d="m2586.615 1023.723c-30.345-65.116 120.006-57.802 146.572-52.796 26.735 4.452 89.445-44.566 97.411-67.355 8.181-22.957 21.609-12.056 69.183-12.706 47.551-.505 5.534-11.262-46.805-28.515-52.242-17.206-7.58-18.938-55.73-56.959-20.719-16.652-14.198-30.801-.386-41.318 109.78 88.796 197.492 203.748 253.657 335.401-1.588-.481-3.079-.746-4.475-.77-33.305-.192-40.645-73.827-57.801-88.169-16.918-14.318.48 40.451 4.62 62.95 4.163 22.524-9.121 3.585-25.724 24.256-16.677 20.695-46.781 21.08-49.5-9.962-2.767-30.971-24.592-61.387-68.895-75.536-44.302-14.15-82.634-2.526-118.634 11.358-35.807 13.645-112.933 64.732-143.493.121z"/><path d="m2964.08 1936.969c3.008-22.355 7.917-45.456-1.421-53.903-22.691-21.056-27.648-78.423-19.78-107.493 7.844-29.141 68.991-27.481 27.504-75.873-41.606-48.537-79.097-106.145-61.627-139.089 17.471-32.895 12.177-35.301-20.574-35.109-32.8.193-47.165 1.637-79.819-27.528-32.679-29.551-77.631 69.737-200.621-9.891-122.966-80.421-52.94-215.972-6.859-216.309 46.372-.77 100.54-24.184 62.543-80.735-37.878-56.766 21.32-64.779 50.245-51.881 28.973 12.753 80.348-21.513 132.712-36.962 52.483-15.377 50.173 70.122 79.314 87.231 29.31 17.133 84.224 3.537 112.763-23.847 20.383-19.54 24.834 3.249 44.976 24.882 23.727 79.122 36.457 162.985 36.457 249.831 0 184.664-57.585 355.902-155.813 496.676z"/><path d="m2744.1 915.341c.031-.052 38.347-17.352 24.46-45.221-13.763-27.877-35.591-113.311-51.54-86.389-16.05 27.044 7.611 79.554 2.444 102.212-5.214 22.725-5.352 34.62 24.636 29.398z"/><path d="m2705.839 889.261c-.541-8.982 5.115-45.457-23.588-44.314.054-.058-41.516 17.289-17.198 46.759 24.428 29.382 41.407 6.513 40.786-2.445z"/></g></g><path clip-path="url(#n)" d="m3117.125 1438.77c0 183.92-56.607 354.533-154.546 494.969-.386.577-.611 1.131-.611 1.709v.024c-156.943 225.166-418.149 370.359-713.533 370.359-24.158 0-48.455-1.84-72.109-5.11-.024 0-.024 0-.024 0-.096 0-.144 2.15-.241 2.15-11.646-.963-23.197-1.079-34.7-2.499-4.092-.481-8.181-.467-12.248-1.045-3.609-.481-7.195-.715-10.781-1.268-3.128-.458-6.233-.791-9.313-1.295-.698-.121-1.396-.179-2.094-.275-7.58-1.251-15.136-2.544-22.668-3.988-.048 0-.071-.009-.12-.009-371.377-70.94-658.795-378.407-699.969-759.506 87.088 249.807 302.434 437.501 567.184 489.816h.096c6.497 3.269 13.019 2.609 19.563 3.692.601.072 1.228.284 1.83.379 2.647.433 5.341.875 8.037 1.26 3.079.482 6.184.871 9.313 1.28 3.514.505 7.026.808 10.564 1.217 9.938 1.228 19.9 3.491 29.958 4.309.097 0 .145.94.217.94h.025c20.429 0 40.788 1.642 61.652 1.642 127.539 0 247.737-32.423 352.896-88.372 105.158-55.948 195.277-136.615 262.656-233.833 0-.505.818-1.182 1.13-1.686 84.585-121.258 134.085-268.698 134.085-427.519 0-74.983-11.009-147.464-31.511-215.781-.024-.12-.3-.265-.3-.386v-.024c-6.54-26.71-17.073-52.82-27.903-78.207-48.513-113.701-124.055-212.965-218.866-289.632-69.401-56.141-148.995-100.13-235.601-128.79 175.426 16.147 335.767 84.464 465.351 189.262 109.779 88.795 198.583 203.749 254.75 335.402 12.561 29.407 20.572 59.63 33.65 90.577v.024c0 .144-1.018.24-.971.385 23.729 79.12 35.152 162.983 35.152 249.829z" fill="url(#q)" opacity=".3"/><path d="m905.478 2570.694c99.489 196.357 234.779 217.215 274.673 219.198v.16s-1.162.096 1.813.032c2.976.064 1.813-.032 1.813-.032v-.16c36.268-1.631 130.429-16.155 219.715-131.704 18.843-24.377 37.526-53.264 54.865-87.494 115.581-228.092 31.539-345.559 31.539-345.559l-306.119-.736v-.032l-1.813.032-1.813-.032v.032l-130.43.32-176.203.416c.001 0-83.62 117.467 31.96 345.559z" fill="url(#s)"/><ellipse cx="1181.49" cy="2229.893" fill="url(#t)" rx="310.811" ry="39.366"/><path d="m905.478 2570.694c99.489 196.357 234.779 217.215 274.673 219.198v.16s-1.162.096 1.813.032c2.976.064 1.813-.032 1.813-.032v-.16c36.268-1.631 130.429-16.155 219.715-131.704-.513-106.4-247.379-178.698-324.508-228.027-97.57-62.381-19.065-200.26-19.065-200.26-3.776-1.792-7.454-3.519-11.132-5.182l-175.736.416c.001 0-83.153 117.467 32.427 345.559z" fill="url(#u)" opacity=".3"/><ellipse cx="1654.376" cy="1676.677" fill="url(#v)" rx="162.074" ry="207.385"/><path d="m630.803 1723.399c0 258.001 255.251 467.122 570.101 467.122 48.368 0 95.298-4.926 140.148-14.235 247.094-51.153 429.951-234.521 429.951-452.887 0-257.97-255.251-467.123-570.099-467.123-88.455 0-172.204 16.507-246.935 45.97-191.206 75.401-323.166 235.672-323.166 421.153z" fill="url(#w)"/><path d="m1581.608 1936.628-439.567 38.364c-97.171 8.481-180.998-67.533-184.397-170.856l-3.627-110.248c-1.56-47.425 34.751-86.98 80.49-88.16l626.625-16.16c36.391-.938 65.543 32.137 65.543 73.732v96.776c0 90.799-64.011 169.478-145.067 176.552z" fill="#f4f7fa"/><path d="m1592.159 1873.583-470.343 34.624c-69.463 5.113-128.811-49.792-131.117-123.157l-1.531-48.692c-1.479-47.049 34.435-86.462 79.614-87.844l560.716-17.141c36.767-1.124 66.262 31.918 66.317 73.653l.057 43.214c.085 65.148-45.869 121.085-103.713 125.343z" fill="url(#x)"/><path d="m1316.411 1831.449c4.426-7.276 7.105-15.311 6.958-23.805-.475-27.535-28.069-48.531-61.98-46.818-34.304 1.732-61.892 25.985-61.259 54.09.195 8.669 3.307 16.512 8.19 23.341z" fill="#d8dee8"/><path d="m1605.831 1813.219c4.078-6.91 6.592-14.547 6.552-22.629-.128-26.197-24.816-46.235-55.447-44.689-30.961 1.563-56.103 24.544-55.846 51.256.079 8.24 2.797 15.704 7.124 22.21z" fill="#d8dee8"/><path d="m630.803 1723.399c0 258.001 255.251 467.122 570.101 467.122 48.368 0 95.298-4.926 140.148-14.235 44.34-139.958-206.241-293.448-350.358-391.242-176.554-119.803-36.725-482.798-36.725-482.798-191.206 75.401-323.166 235.672-323.166 421.153z" fill="url(#y)" opacity=".3"/><ellipse cx="708.604" cy="1758.009" fill="url(#z)" rx="162.074" ry="207.385"/><path d="m2170.625 1760.024c3.704-5.739 10.462-17.954 10.893-34.357.84-31.874-22.8-56.733-25.977-55.306-1.712.769.459 10.108 1.676 14.246 2.532 8.618 5.256 9.449 5.027 13.407-.469 8.148-12.231 8.462-18.435 19.274-4.468 7.786-4.824 18.877 0 27.653 8.005 14.561 26.054 15.074 26.816 15.083z" fill="#fff"/><path d="m2675.601 2452.313-9.086-31.267 37.934-28.11 23.645-8.842-14 43.749z" fill="url(#A)"/><path d="m2628.644 3082.04s20.75 52.197 15.289 75.347c22.277-.437 36.691-3.275 36.691-3.275s-8.954-23.806-10.701-35.599c-2.361-15.934-2.184-41.714-2.184-41.714z" fill="url(#B)"/><path d="m2399.926 3204.125c1.342 1.619 3.722 5.004 3.922 9.589.109 2.491-.46 4.54-1.177 6.425-3.538 9.31-9.094 10.538-15.09 20.416-3.663 6.036-2.971 7.856-6.329 10.58-4.424 3.591-9.775 3.797-14.414 3.85-7.838.09-19.124-.19-33.333-1.884 7.447-9.597 15.365-19.347 23.787-29.191 3.693-4.316 7.381-8.532 11.058-12.648l21.893-7.398c3.228.088 6.455.175 9.683.261z" fill="#26264f"/><path d="m2381.719 3097.829s-12.515 65.298 3.41 83.583c13.565 18.284-6.552 5.241-6.552 5.241l-24.024 20.967-14.413 24.898s13.268-63.91 9.729-89.272c-3.538-25.361-5.308-42.466-5.308-42.466z" fill="url(#C)"/><path d="m2334.534 2383.567s-33.62 30.08-33.62 153.941 15.926 392.815 15.926 392.815l25.483 192.557s26.422.94 44.117-4.367c15.925-72.547 41.875-195.267 29.488-297.895-5.307-111.475 44.236-251.26 44.236-251.26s42.466 141.555 72.548 212.333c30.08 70.776 87.35 292.505 92.657 308.431 35.199 3.19 50.232-6.117 50.232-6.117s-22.569-238.615-43.801-328.857c-21.234-90.241-19.464-307.881-54.854-369.812-79.624-31.85-242.412-1.769-242.412-1.769z" fill="url(#E)"/><path d="m2334.535 2383.567s-33.622 30.08-33.622 153.941 15.926 392.815 15.926 392.815l25.483 192.557s26.422.94 44.117-4.367c15.925-72.547 41.875-195.267 29.489-297.895-5.308-111.475 44.235-251.26 44.235-251.26s42.466 141.555 72.548 212.333c30.08 70.776 87.351 292.505 92.658 308.431 35.197 3.19 50.231-6.117 50.231-6.117s-22.57-238.615-43.801-328.857c-21.234-90.241-19.464-307.881-54.853-369.813-79.623-31.849-242.411-1.768-242.411-1.768z" fill="url(#F)"/><path d="m2509.18 2610.515c10.483 68.141 31.448 104.833 83.865 152.007 41.932 31.449 10.484 99.591 26.209 152.006 5.241 15.725 20.966 31.449 26.208 47.174 19.505 39.011 1.287 86.728 10.131 128.032 13.762-1.901 20.008-5.729 20.008-5.729s-22.57-238.615-43.801-328.857c-21.234-90.241-19.464-307.882-54.853-369.813-79.625-31.849-242.412-1.769-242.412-1.769s-33.622 30.08-33.622 153.941c0 10.051.107 21.067.3 32.805 34.902 30.889 106.285 37.752 150.309 3.513 2.659-1.995 5.49-3.218 8.413-3.812.135-.391.228-.656.228-.656s.073.245.185.613c20.037-3.655 44.287 22.363 48.832 40.545z" fill="url(#G)" opacity=".25"/><path d="m2638.474 3177.196s-5.171 0-4.741 6.68c.432 6.678-2.327 29.656 23.958 30.733 26.287 1.077 30.34-1.861 31.202-1.861s-6.895-21.979-6.895-21.979l-8.404-10.772-22.624-2.37z" fill="#26264f"/><path d="m2696.76 3200.259c-.561-5.548-3.665-14.282-6.789-21.311-4.641-10.441-.83-14.348-5.267-23.858-1.533-3.288-3.024-6.406-6.264-9.496-.746-.71-8-7.414-18.562-7.073-2.079.067-5.28.207-8.739 2.051-4.076 2.172-6.118 5.435-7.862 8.299-2.741 4.502-2.112 5.883-6.333 18.782-.34 1.035-1.083 3.286-1.654 6.392-.439 2.377-.615 4.373-.693 5.737 6.895 0 33.398 1.078 38.998 5.171 5.603 4.094 8.404 10.989 8.404 17.884s3.448 10.126 6.895 9.911c3.08-.193 9.199-5.897 7.866-12.489z" fill="#444b8c"/><path d="m2378.359 3172.239c5.921.093 10.265 4.805 13.54 16.161 3.277 11.357 19.001 21.404.656 19.001-18.346-2.403-31.669 23.586-38.22 33.197-6.553 9.609-24.141 18.147-23.704 8.756.436-9.392 8.198-13.78 10.381-23.389 2.184-9.61 23.841-53.938 37.347-53.726z" fill="#444b8c"/><path d="m2689.523 2398.517c4.354-12.104 31.524-91.611-12.39-164.119-35.95-59.358-98.157-78.723-107.026-81.343-53.994-15.945-81.055 4.54-98.091-14.313-28.909-31.993 3.839-140.969 67.181-162.797 71.401-24.605 157.056 70.007 191.767 132.149 45.537 81.528 34.329 162.557 31.693 179.246-6.847 43.366-22.766 76.445-34.563 96.754-12.857 4.808-25.714 9.616-38.571 14.423z" fill="url(#H)"/><path d="m2503.065 1960.561c-63.734-2.549-112.885-1.539-140.65 26.207-29.326 29.306.31 62.391-6.058 139.051-9.748 117.364-84.536 146.039-90.163 265.106-1.897 40.118 4.892 72.909 10.164 92.656 16.414 20.441 43.278 49.288 82.925 73.408 57.693 35.101 91.15 28.981 174.007 51.657 135.529 37.092 147.586 81.264 214.789 70.01 67.919-11.374 127.507-68.531 120.31-99.917-4.312-18.797-31.691-13.472-63.213-42.142-40.628-36.949-24.96-72.219-55.848-111.925-44.367-57.033-106.179-22.168-143.988-71.597-38.245-50.001-23.075-148.529 9.163-202.235 21.057-35.079 30.074-76.186 47.993-112.967 1.489-3.055 3.217-8.067 2.456-14.331-2.908-23.954-42.838-36.947-73.081-46.479-46.126-14.538-83.564-16.294-88.806-16.502z" fill="url(#I)"/><path d="m2449.382 1957.925 12.57-3.868s3.287 17.018 43.704 19.145c22.432 0 36.936-12.569 36.936-12.569l8.588 6.261s-18.843 23.538-48.812 22.939c-38.676-.773-52.986-31.908-52.986-31.908z" fill="url(#J)"/><path d="m2474.977 1906.157c2.422-18.691 17.198-30.666 20.422-33.23 13.5-10.73 16.247-11.81 20.884-12.691l6.331-.96s.341.008.691.029c3.707.225 14.816 4.561 16.836 5.98 6.452 4.538 1.701 36.672-17.859 76.639-.77 3.384-1.538 6.769-2.308 10.152 17.049 2.996 21.271 6.072 21.406 8.528.291 5.319-18.375 12.107-35.676 12.548-21.695.553-44.731-8.781-44.29-15.747.178-2.819 4.271-6.298 20.023-9.714 2.463-3.461 4.923-6.922 7.385-10.383-2.234-2.707-15.629-17.381-13.845-31.151z" fill="#fff"/><path d="m2501.796 1899.12c4.921-2.945 8.669 3.386 6.351 8.918-2.317 5.533-10.106 8.995-14.831 5.695-4.724-3.297 1.858-10.651 8.48-14.613z" fill="#fff"/><path d="m3139.594 1899.026c-64.772-70.288-215.481-51.012-299.073 5.437-38.843 26.231-58.779 57.214-104.676 59.815-34.891 1.977-90.397-11.143-119.629-48.939-3.683-4.762-18.413-24.733-40.531-49.917-9.751-11.102-19.449-21.522-34.48-23.878-3.819-.598-16.522-2.666-24.921 5.539-6.806 6.647-8.475 18.206-6.463 26.537 1.205 4.982 2.762 5.507 2.54 8.769-.624 9.162-17.313 13.153-16.384 17.768.663 3.297 9.349 2.09 10.845 6.229 1.639 4.536-7.9 8.439-12 19.846-7.679 5.14-12.531 17.933-14.209 35.049-2.468 25.162.06 45.608 4.828 61.005 22.955 74.138 39.376 127.168 79.115 156.781 52.612 39.206 99.987 3.007 233.822-2.718 183.259-7.839 228.95 54.279 294.816 11.783 82.242-53.061 113.65-216.131 46.4-289.106z" fill="url(#K)"/><path d="m2178.369 1755.56c-1.634 15.334-7.161 83.165 39.626 140.438 43.719 53.515 105.633 64.205 117.142 65.944 55.668 8.412 79.676-15.58 99.128.768 33.012 27.74 15.471 140.169-44.292 170.453-67.365 34.137-165.154-47.875-208.033-104.689-56.258-74.536-56.234-156.336-55.906-173.228.852-43.896 12.1-78.84 21.009-100.571 3.659-1.102 9.23-2.321 16.059-2.084 6.508.227 11.76 1.692 15.267 2.969z" fill="url(#L)"/><path d="m2750.118 2633.795c-16.296-16.708 1.643-50.4-22.43-75.448-22.341-23.248-47.637-4.466-83.604-24.469-46.133-25.657-33.421-72.628-77.488-97.88-31.688-18.159-46.579 1.365-95.84-8.156-49.177-9.505-109.074-43.408-138.661-103.996-12.572-25.744-17.206-51.337-17.821-74.215-22.118 39.515-45.059 77.385-48.08 141.292-1.897 40.118 4.892 72.909 10.164 92.656 16.414 20.441 43.278 49.289 82.925 73.408 57.693 35.101 91.15 28.982 174.007 51.659 135.529 37.092 147.586 81.264 214.789 70.01 43.407-7.269 83.317-33.237 104.66-59.228-62.634 27.883-90.793 26.494-102.621 14.367z" fill="url(#M)" opacity=".25"/></svg>